<?xml version="1.0" encoding="UTF-8"?>
<svg version="1.1" xmlns="http://www.w3.org/2000/svg" width="212" height="215">
<path d="M0 0 C-1.48510716 3.3433951 -3.43123617 5.79877697 -5.8125 8.5625 C-9.98776776 13.6966448 -12.51868787 18.90709834 -15 25 C-15.76540661 26.73157561 -16.53582317 28.46095012 -17.3125 30.1875 C-17.87548801 31.45811722 -18.43818846 32.72886216 -19 34 C-17.7625 34.226875 -16.525 34.45375 -15.25 34.6875 C-9.19074171 36.01145277 -3.65108692 38.49478042 2 41 C2 42.32 2 43.64 2 45 C0.906875 45.144375 -0.18625 45.28875 -1.3125 45.4375 C-7.59398838 46.97972923 -12.57443398 51.44221145 -17 56 C-18.66733413 60.4803879 -16.83805887 63.87866436 -15.0625 68.0625 C-14.7425708 68.82111328 -14.4226416 69.57972656 -14.09301758 70.36132812 C-6.98468273 86.58728713 4.87968313 97.4050385 21.02246094 104.26513672 C25.6076983 105.96903356 30.15465037 106.51546504 35 107 C37.97 100.565 37.97 100.565 41 94 C41.99 94 42.98 94 44 94 C44.32613281 94.85464844 44.65226562 95.70929688 44.98828125 96.58984375 C45.42527344 97.69457031 45.86226563 98.79929687 46.3125 99.9375 C46.74175781 101.03964844 47.17101562 102.14179688 47.61328125 103.27734375 C48.75608861 106.30860265 48.75608861 106.30860265 52 107 C67.71053809 104.81183429 81.81803181 96.17075787 91.375 83.625 C94.97826831 78.35981611 97.57317626 72.88137711 100 67 C100.7663356 65.26883532 101.53683447 63.53950445 102.3125 61.8125 C102.87548801 60.54188278 103.43818846 59.27113784 104 58 C103.030625 57.38125 102.06125 56.7625 101.0625 56.125 C98 54 98 54 97 52 C97.66 51.67 98.32 51.34 99 51 C98.3503125 50.59007812 97.700625 50.18015625 97.03125 49.7578125 C96.1959375 49.21898437 95.360625 48.68015625 94.5 48.125 C93.6646875 47.59132812 92.829375 47.05765625 91.96875 46.5078125 C91.3190625 46.01023438 90.669375 45.51265625 90 45 C90 44.34 90 43.68 90 43 C93.49529294 44.11213866 96.74469192 45.31573191 100 47 C99.2059375 46.52949219 98.411875 46.05898437 97.59375 45.57421875 C96.5728125 44.95160156 95.551875 44.32898438 94.5 43.6875 C93.4790625 43.07261719 92.458125 42.45773438 91.40625 41.82421875 C90.6121875 41.22222656 89.818125 40.62023437 89 40 C89 39.01 89 38.02 89 37 C89.99 36.67 90.98 36.34 92 36 C92 35.01 92 34.02 92 33 C92.33 32.34 92.66 31.68 93 31 C100.75 31.875 100.75 31.875 103 33 C97.87397514 20.03176947 97.87397514 20.03176947 90.2265625 8.5078125 C88.82593757 6.78602516 87.93035128 5.00851539 87 3 C92.4684886 3.91537744 94.85767131 7.70927006 98 12 C99.52979703 14.35608055 100.96769077 16.75654843 102.375 19.1875 C102.89368652 20.07828247 102.89368652 20.07828247 103.42285156 20.98706055 C105.27530586 24.29746499 106.50319577 27.23138507 107 31 C108.65 30.67 110.3 30.34 112 30 C112.33 29.01 112.66 28.02 113 27 C115.58990016 25.08155543 116.87482427 24.98998594 120.125 25.25 C123 26 123 26 125 28 C125.125 31.5 125.125 31.5 125 35 C125 35.66 125 36.32 125 37 C125.66 36.649375 126.32 36.29875 127 35.9375 C131.65245188 34.48360879 135.70666347 35.31819725 140.3125 36.6875 C142.82977418 38.64537992 143.74866715 41.12193444 145 44 C145.99 43.67 146.98 43.34 148 43 C149.01911045 46.89114901 149.16782969 48.60596507 147.5625 52.375 C147.046875 53.24125 146.53125 54.1075 146 55 C143.66666667 55 141.33333333 55 139 55 C137.66018514 55.3062434 136.32488113 55.63451555 135 56 C134.67 55.01 134.34 54.02 134 53 C131.98491642 52.26676204 131.98491642 52.26676204 130 52 C130.66 51.01 131.32 50.02 132 49 C132 48.01 132 47.02 132 46 C127.10336058 46.85511166 122.60544763 48.48707808 117.9375 50.16015625 C115.11713281 50.96651123 112.91111349 51.16589066 110 51 C111.2375 51.144375 112.475 51.28875 113.75 51.4375 C116.56504499 51.78688502 119.2701497 52.20379366 122 53 C122 53.33 122 53.66 122 54 C122.61488281 53.96519531 123.22976562 53.93039063 123.86328125 53.89453125 C124.67152344 53.86746094 125.47976562 53.84039062 126.3125 53.8125 C127.51326172 53.76029297 127.51326172 53.76029297 128.73828125 53.70703125 C131.53143171 54.0688383 132.15799747 54.95333052 134 57 C137.10007201 58.20049407 137.10007201 58.20049407 140 59 C140.625 61.3125 140.625 61.3125 141 64 C140.34 64.99 139.68 65.98 139 67 C138.01 66.67 137.02 66.34 136 66 C135.67 64.35 135.34 62.7 135 61 C134.62875 61.66 134.2575 62.32 133.875 63 C132 65 132 65 128.9375 65.375 C126 65 126 65 124 63 C124 62.01 124 61.02 124 60 C125.65 60.33 127.3 60.66 129 61 C128.67 60.01 128.34 59.02 128 58 C126.700625 58.144375 125.40125 58.28875 124.0625 58.4375 C119.375 58.95833333 114.6875 59.47916667 110 60 C113.96 60 117.92 60 122 60 C120 63 120 63 117 64 C115.60560336 64.06665376 114.20830125 64.08538199 112.8125 64.0625 C111.554375 64.041875 110.29625 64.02125 109 64 C109.103125 64.886875 109.20625 65.77375 109.3125 66.6875 C109.26009998 79.65650474 99.61633212 92.82759151 91.15234375 101.94140625 C82.07409606 110.62423118 70.39112391 116.93481268 58 119 C58.19078125 119.54527344 58.3815625 120.09054688 58.578125 120.65234375 C60.2060619 126.18922217 60.16484049 129.82890725 57.44921875 134.98046875 C54.2796066 139.39742154 50.65480602 141.53241408 45.31640625 142.47265625 C38.59278119 142.83634748 34.12309853 141.33008819 29 137 C25.63635181 133.96186615 25.46669406 130.63915145 25.015625 126.31640625 C24.99834773 123.75505111 25.42049583 121.48923383 26 119 C25.42894531 118.93683594 24.85789062 118.87367188 24.26953125 118.80859375 C7.71030209 116.3075973 -5.4122066 104.60410234 -15.25390625 91.65234375 C-20.94033711 83.01456623 -24.66712185 73.2736451 -26 63 C-25.67 62.01 -25.34 61.02 -25 60 C-29.39570794 59.9127747 -33.79119271 59.85953131 -38.1875 59.8125 C-39.43337891 59.78736328 -40.67925781 59.76222656 -41.96289062 59.73632812 C-43.16494141 59.72666016 -44.36699219 59.71699219 -45.60546875 59.70703125 C-46.71043701 59.6913208 -47.81540527 59.67561035 -48.95385742 59.65942383 C-52.36673142 60.04100267 -54.1739713 61.11835785 -57 63 C-57.66 63 -58.32 63 -59 63 C-59.375 60.9375 -59.375 60.9375 -59 58 C-57.20822891 55.46427718 -55.15761879 53.22825512 -53 51 C-53.99 51 -54.98 51 -56 51 C-55.02603765 45.71948121 -51.91543284 42.51108522 -48 39 C-40.02705564 33.5877093 -32.53884991 32.03077048 -23 32 C-22.86464844 31.40574219 -22.72929688 30.81148437 -22.58984375 30.19921875 C-20.39335961 21.74209717 -10.47602565 0 0 0 Z M112 31 C110.70079254 34.54588501 110.70079254 34.54588501 110 38 C114.23291565 37.75579333 116.37020421 37.598306 119.5 34.625 C119.995 33.75875 120.49 32.8925 121 32 C120.67 31.01 120.34 30.02 120 29 C115.55652809 28.89570423 115.55652809 28.89570423 112 31 Z M127 41 C131.455 41.99 131.455 41.99 136 43 C137.125 48.625 137.125 48.625 136 52 C137.32 51.34 138.64 50.68 140 50 C140.40817755 45.01432906 140.40817755 45.01432906 138.4375 40.5625 C134.52202276 38.05257869 130.39986689 37.60013311 127 41 Z M109 42 C109 42.33 109 42.66 109 43 C112.41656024 43.16677282 112.41656024 43.16677282 116 43 C116.66 42.34 117.32 41.68 118 41 C114.72724974 41 112.153368 41.29925156 109 42 Z M-45 44 C-45.33 44.66 -45.66 45.32 -46 46 C-45.01 45.67 -44.02 45.34 -43 45 C-43.66 44.67 -44.32 44.34 -45 44 Z M-50.125 48 C-50.74375 48.66 -51.3625 49.32 -52 50 C-48.27385847 48.88145414 -48.27385847 48.88145414 -46 46 C-48.24362573 45.7715451 -48.24362573 45.7715451 -50.125 48 Z M109 46 C109 46.33 109 46.66 109 47 C111.31 47 113.62 47 116 47 C116 46.67 116 46.34 116 46 C113.69 46 111.38 46 109 46 Z M144 46 C145 50 145 50 145 50 Z M143 50 C144 52 144 52 144 52 Z M109 55 C113 56 113 56 113 56 Z M42 103 C41.67 104.98 41.34 106.96 41 109 C41.99 108.67 42.98 108.34 44 108 C43.67 106.35 43.34 104.7 43 103 C42.67 103 42.34 103 42 103 Z M40.875 119.9375 C39.79992187 120.11152344 38.72484375 120.28554687 37.6171875 120.46484375 C35.08389645 120.73239825 35.08389645 120.73239825 34 122 C33.63138843 126.42333888 33.51351946 128.98473627 35.4375 133 C38.70181418 135.54775741 40.8115683 135.67654563 44.87109375 135.40234375 C47.15806642 135.08072656 47.15806642 135.08072656 49.5625 133.625 C51.77748714 129.58024087 51.48007335 125.51741153 51 121 C50.67 120.34 50.34 119.68 50 119 C46.84521865 119 43.98653602 119.42390911 40.875 119.9375 Z " fill="#A39E7D" transform="translate(59,65)"/>
<path d="M0 0 C3.55977185 2.46445743 6.7807087 4.73248044 8 9 C8.45301512 14.61738748 8.25782406 18.21507092 5 23 C1.94526366 26.02101961 -1.34435649 28.7287023 -4.75 31.34375 C-9.08852816 34.72780196 -11.47833769 37.8802548 -12.3984375 43.3828125 C-12.65426492 45.5884597 -12.85721884 47.78443033 -13 50 C-11.35 49.34 -9.7 48.68 -8 48 C-8.2475 46.845 -8.495 45.69 -8.75 44.5 C-9.4222684 39.48039594 -7.59586405 36.18903383 -5 32 C-1.2109375 32.7890625 -1.2109375 32.7890625 0.6875 34.6875 C3.21235649 39.13605668 3.28933526 43.12917792 2 48 C3.65 48.66 5.3 49.32 7 50 C7.43960919 41.79396186 5.51863523 35.8855394 1 29 C3.34614509 29.38936025 4.6912788 29.69810136 6.4140625 31.3828125 C11.41297314 38.57479362 12.43611766 44.44151505 11 53 C12.11375 53.103125 13.2275 53.20625 14.375 53.3125 C19.43554302 53.929197 24.16622643 55.42506148 29 57 C29 57.99 29 58.98 29 60 C20.81331015 59.19475182 20.81331015 59.19475182 17.12890625 58.3125 C14.36819265 57.65322511 11.8385619 57.09492006 9 57 C5.93468711 59.14691542 5.93468711 59.14691542 4 62 C0.2795825 63.24013917 -3.13490939 63.55006033 -7 63 C-10.25 61.125 -10.25 61.125 -13 59 C-14.90168356 57.54780623 -14.90168356 57.54780623 -17 57 C-20.20898563 57.7913437 -20.20898563 57.7913437 -23 59 C-23 59.33 -23 59.66 -23 60 C-21.94941406 60.24234375 -20.89882812 60.4846875 -19.81640625 60.734375 C-12.16169439 62.54599014 -5.07566875 64.46216562 2 68 C2.495 66.515 2.495 66.515 3 65 C10.40284317 60.77585857 18.66323998 59.94580325 27 61 C31.70167882 62.30970083 34.25874346 63.97532185 37.125 67.9375 C38 71 38 71 37.4375 73.6875 C35.52533736 76.76358773 33.64500341 78.50476739 30.14453125 79.55859375 C17.27319979 82.2078842 5.3958756 76.53350884 -5.82446289 70.81835938 C-14.6445471 66.42471935 -24.39242104 64.2760341 -34.0625 67 C-35.5165625 67.495 -35.5165625 67.495 -37 68 C-37.5534764 70.07553648 -38 71.84365964 -38 74 C-29.52223225 75.91483279 -21.45538853 75.62650664 -13.25390625 72.75390625 C-10.85635621 71.95195277 -8.48514964 71.45144694 -6 71 C-7.00864147 73.73364763 -7.65344651 74.81047856 -10.25 76.23046875 C-19.97370308 79.61442792 -28.99052388 81.42188672 -39 78 C-41.52592763 76.15176027 -42.56279133 74.87441735 -43.9375 72.125 C-44.0387574 68.68224827 -42.89592067 66.84388101 -41 64 C-38.74054019 62.36677628 -36.52003091 61.23624158 -34 60 C-34.66 59.67 -35.32 59.34 -36 59 C-36 58.34 -36 57.68 -36 57 C-27.09 54.525 -27.09 54.525 -18 52 C-18.0825 50.02 -18.165 48.04 -18.25 46 C-18.21878346 38.80458861 -17.19861556 34.3075046 -12.1640625 29.1015625 C-9.15894584 26.37277841 -6.05778203 23.97481613 -2.625 21.8125 C0.13736471 19.90515294 1.11332407 19.19203335 2 16 C2.25281025 13.2410707 2.18031949 10.79495205 2 8 C0.11861241 5.71069764 0.11861241 5.71069764 -2.9375 5.625 C-6.00872647 5.72023963 -6.00872647 5.72023963 -7.875 7.5625 C-9.40343025 10.87409887 -9.32783949 13.39376565 -9 17 C-8.34 17.99 -7.68 18.98 -7 20 C-7 20.99 -7 21.98 -7 23 C-9.37816148 22.04873541 -10.73104425 21.43146965 -12.10546875 19.2265625 C-13.71471097 15.22102509 -13.67277869 11.22984621 -13 7 C-9.97884793 1.39570676 -6.28093034 -0.72472273 0 0 Z M-4 40 C-3.67 40.99 -3.34 41.98 -3 43 C-2.67 42.01 -2.34 41.02 -2 40 C-2.66 40 -3.32 40 -4 40 Z M-10 54 C-9.51294288 56.06402968 -9.51294288 56.06402968 -8 58 C-4.01967863 59.12650605 -1.87132954 59.38931746 1.9375 57.6875 C2.618125 57.130625 3.29875 56.57375 4 56 C4 55.34 4 54.68 4 54 C-1.60483541 50.06146701 -4.13511068 50.87205903 -10 54 Z M2 68 C8.25911305 73.02451736 15.98745036 75.87281667 24 76 C27.10453156 75.23236935 30.04257333 74.21172343 33 73 C32.88658466 70.59122743 32.88658466 70.59122743 32 68 C23.86230155 61.63202408 10.93708919 64.46722121 2 68 Z " fill="#F9F7F5" transform="translate(106,69)"/>
<path d="M0 0 C-1.48510716 3.3433951 -3.43123617 5.79877697 -5.8125 8.5625 C-9.98776776 13.6966448 -12.51868787 18.90709834 -15 25 C-15.76540661 26.73157561 -16.53582317 28.46095012 -17.3125 30.1875 C-17.87548801 31.45811722 -18.43818846 32.72886216 -19 34 C-17.7625 34.226875 -16.525 34.45375 -15.25 34.6875 C-9.19074171 36.01145277 -3.65108692 38.49478042 2 41 C2 42.32 2 43.64 2 45 C0.906875 45.144375 -0.18625 45.28875 -1.3125 45.4375 C-7.59398838 46.97972923 -12.57443398 51.44221145 -17 56 C-18.27543499 59.27834664 -17.87276066 61.11953522 -16.56640625 64.328125 C-16.24736328 65.12734375 -15.92832031 65.9265625 -15.59960938 66.75 C-15.08624023 67.9875 -15.08624023 67.9875 -14.5625 69.25 C-14.22412109 70.09046875 -13.88574219 70.9309375 -13.53710938 71.796875 C-12.70126562 73.86882572 -11.85533351 75.93603615 -11 78 C-14.64167599 78.09662822 -16.83390538 77.87620422 -20 76 C-20 76.99 -20 77.98 -20 79 C-20.66 79 -21.32 79 -22 79 C-22.69761537 76.39816412 -23.38337774 73.79416398 -24.0625 71.1875 C-24.26166016 70.44951172 -24.46082031 69.71152344 -24.66601562 68.95117188 C-26.11328125 63.33984375 -26.11328125 63.33984375 -25 60 C-29.39570794 59.9127747 -33.79119271 59.85953131 -38.1875 59.8125 C-39.43337891 59.78736328 -40.67925781 59.76222656 -41.96289062 59.73632812 C-43.16494141 59.72666016 -44.36699219 59.71699219 -45.60546875 59.70703125 C-46.71043701 59.6913208 -47.81540527 59.67561035 -48.95385742 59.65942383 C-52.36673142 60.04100267 -54.1739713 61.11835785 -57 63 C-57.66 63 -58.32 63 -59 63 C-59.375 60.9375 -59.375 60.9375 -59 58 C-57.20822891 55.46427718 -55.15761879 53.22825512 -53 51 C-53.99 51 -54.98 51 -56 51 C-55.02603765 45.71948121 -51.91543284 42.51108522 -48 39 C-40.02705564 33.5877093 -32.53884991 32.03077048 -23 32 C-22.86464844 31.40574219 -22.72929688 30.81148437 -22.58984375 30.19921875 C-20.39335961 21.74209717 -10.47602565 0 0 0 Z M-45 44 C-45.33 44.66 -45.66 45.32 -46 46 C-45.01 45.67 -44.02 45.34 -43 45 C-43.66 44.67 -44.32 44.34 -45 44 Z M-50.125 48 C-50.74375 48.66 -51.3625 49.32 -52 50 C-48.27385847 48.88145414 -48.27385847 48.88145414 -46 46 C-48.24362573 45.7715451 -48.24362573 45.7715451 -50.125 48 Z " fill="#67A133" transform="translate(59,65)"/>
<path d="M0 0 C5.4684886 0.91537744 7.85767131 4.70927006 11 9 C12.52979703 11.35608055 13.96769077 13.75654843 15.375 16.1875 C15.72079102 16.78135498 16.06658203 17.37520996 16.42285156 17.98706055 C18.27530586 21.29746499 19.50319577 24.23138507 20 28 C21.65 27.67 23.3 27.34 25 27 C25.33 26.01 25.66 25.02 26 24 C28.58990016 22.08155543 29.87482427 21.98998594 33.125 22.25 C36 23 36 23 38 25 C38.125 28.5 38.125 28.5 38 32 C38 32.66 38 33.32 38 34 C38.66 33.649375 39.32 33.29875 40 32.9375 C44.65245188 31.48360879 48.70666347 32.31819725 53.3125 33.6875 C55.82977418 35.64537992 56.74866715 38.12193444 58 41 C58.99 40.67 59.98 40.34 61 40 C62.01911045 43.89114901 62.16782969 45.60596507 60.5625 49.375 C60.046875 50.24125 59.53125 51.1075 59 52 C56.66666667 52 54.33333333 52 52 52 C50.66018514 52.3062434 49.32488113 52.63451555 48 53 C47.67 52.01 47.34 51.02 47 50 C44.98491642 49.26676204 44.98491642 49.26676204 43 49 C43.66 48.01 44.32 47.02 45 46 C45 45.01 45 44.02 45 43 C40.10336058 43.85511166 35.60544763 45.48707808 30.9375 47.16015625 C28.11713281 47.96651123 25.91111349 48.16589066 23 48 C24.2375 48.144375 25.475 48.28875 26.75 48.4375 C29.56504499 48.78688502 32.2701497 49.20379366 35 50 C35 50.33 35 50.66 35 51 C35.92232422 50.94779297 35.92232422 50.94779297 36.86328125 50.89453125 C37.67152344 50.86746094 38.47976562 50.84039062 39.3125 50.8125 C40.51326172 50.76029297 40.51326172 50.76029297 41.73828125 50.70703125 C44.53143171 51.0688383 45.15799747 51.95333052 47 54 C50.10007201 55.20049407 50.10007201 55.20049407 53 56 C53.625 58.3125 53.625 58.3125 54 61 C53.34 61.99 52.68 62.98 52 64 C51.01 63.67 50.02 63.34 49 63 C48.67 61.35 48.34 59.7 48 58 C47.62875 58.66 47.2575 59.32 46.875 60 C45 62 45 62 41.9375 62.375 C39 62 39 62 37 60 C37 59.01 37 58.02 37 57 C38.65 57.33 40.3 57.66 42 58 C41.67 57.01 41.34 56.02 41 55 C39.700625 55.144375 38.40125 55.28875 37.0625 55.4375 C32.375 55.95833333 27.6875 56.47916667 23 57 C26.96 57 30.92 57 35 57 C33 60 33 60 30 61 C22.84381339 61.45436105 22.84381339 61.45436105 19.5625 59.6875 C18 58 18 58 17 55 C15.01924973 53.63823419 13.01920337 52.30406884 11 51 C10.67 50.34 10.34 49.68 10 49 C10.99 48.505 10.99 48.505 12 48 C11.3503125 47.59007812 10.700625 47.18015625 10.03125 46.7578125 C9.1959375 46.21898437 8.360625 45.68015625 7.5 45.125 C6.6646875 44.59132812 5.829375 44.05765625 4.96875 43.5078125 C4.3190625 43.01023438 3.669375 42.51265625 3 42 C3 41.34 3 40.68 3 40 C6.49529294 41.11213866 9.74469192 42.31573191 13 44 C12.2059375 43.52949219 11.411875 43.05898437 10.59375 42.57421875 C9.5728125 41.95160156 8.551875 41.32898438 7.5 40.6875 C6.4790625 40.07261719 5.458125 39.45773438 4.40625 38.82421875 C3.6121875 38.22222656 2.818125 37.62023437 2 37 C2 36.01 2 35.02 2 34 C3.485 33.505 3.485 33.505 5 33 C5 32.01 5 31.02 5 30 C5.33 29.34 5.66 28.68 6 28 C13.75 28.875 13.75 28.875 16 30 C10.87397514 17.03176947 10.87397514 17.03176947 3.2265625 5.5078125 C1.82593757 3.78602516 0.93035128 2.00851539 0 0 Z M25 28 C23.70079254 31.54588501 23.70079254 31.54588501 23 35 C27.23291565 34.75579333 29.37020421 34.598306 32.5 31.625 C32.995 30.75875 33.49 29.8925 34 29 C33.67 28.01 33.34 27.02 33 26 C28.55652809 25.89570423 28.55652809 25.89570423 25 28 Z M40 38 C44.455 38.99 44.455 38.99 49 40 C50.125 45.625 50.125 45.625 49 49 C50.32 48.34 51.64 47.68 53 47 C53.40817755 42.01432906 53.40817755 42.01432906 51.4375 37.5625 C47.52202276 35.05257869 43.39986689 34.60013311 40 38 Z M22 39 C22 39.33 22 39.66 22 40 C25.41656024 40.16677282 25.41656024 40.16677282 29 40 C29.66 39.34 30.32 38.68 31 38 C27.72724974 38 25.153368 38.29925156 22 39 Z M22 43 C22 43.33 22 43.66 22 44 C24.31 44 26.62 44 29 44 C29 43.67 29 43.34 29 43 C26.69 43 24.38 43 22 43 Z M57 43 C58 47 58 47 58 47 Z M56 47 C57 49 57 49 57 49 Z M22 52 C26 53 26 53 26 53 Z " fill="#AEB6B7" transform="translate(146,68)"/>
<path d="M0 0 C0.99 0 1.98 0 3 0 C4.23435284 2.46870567 4.10525694 4.24289944 4.1875 7 C4.77021506 14.26960924 8.14778174 19.44496241 12.6328125 25.03515625 C16.17339418 30.12347792 15.68266739 37.07596412 15 43 C13.16799513 47.60932424 10.37480623 51.52094314 6 54 C1.57885639 55.47371454 -2.35133099 55.51291925 -6.8125 54.125 C-9 53 -9 53 -11 51 C-11 50.01 -11 49.02 -11 48 C-11.61875 47.773125 -12.2375 47.54625 -12.875 47.3125 C-15.78601333 45.51452118 -16.15372627 44.3145721 -17 41 C-18.10686178 33.53237255 -15.73258192 28.38538121 -12 22 C-11.34 22 -10.68 22 -10 22 C-9.67 24.64 -9.34 27.28 -9 30 C-8.34 29.67 -7.68 29.34 -7 29 C-6.79198788 24.07417081 -6.79198788 24.07417081 -8.0625 19.375 C-9.22744783 16.42379882 -9.01878278 14.97798042 -8 12 C-5.99840071 9.33120095 -4.25511789 8.56122722 -1 8 C-0.67 5.36 -0.34 2.72 0 0 Z " fill="#F7652E" transform="translate(102,0)"/>
<path d="M0 0 C9.18450185 1.01660517 9.18450185 1.01660517 12.125 4.5625 C12.74375 5.696875 13.3625 6.83125 14 8 C23.62834116 20.48959348 36.50931492 28.20659777 52 31 C52.75 33.125 52.75 33.125 53 36 C49.9375 41.6875 49.9375 41.6875 46 43 C31.79478944 42.34184353 20.40185347 32.76501519 11 23 C6.0289312 17.48382219 1.70997043 11.95166327 -1 5 C-0.58984375 2.26953125 -0.58984375 2.26953125 0 0 Z " fill="#B9B591" transform="translate(39,141)"/>
<path d="M0 0 C-1.48510716 3.3433951 -3.43123617 5.79877697 -5.8125 8.5625 C-9.98776776 13.6966448 -12.51868787 18.90709834 -15 25 C-15.76540661 26.73157561 -16.53582317 28.46095012 -17.3125 30.1875 C-17.87548801 31.45811722 -18.43818846 32.72886216 -19 34 C-17.7625 34.226875 -16.525 34.45375 -15.25 34.6875 C-9.19074171 36.01145277 -3.65108692 38.49478042 2 41 C2 42.32 2 43.64 2 45 C0.906875 45.144375 -0.18625 45.28875 -1.3125 45.4375 C-7.59398838 46.97972923 -12.57443398 51.44221145 -17 56 C-18.27543499 59.27834664 -17.87276066 61.11953522 -16.56640625 64.328125 C-16.24736328 65.12734375 -15.92832031 65.9265625 -15.59960938 66.75 C-15.08624023 67.9875 -15.08624023 67.9875 -14.5625 69.25 C-14.22412109 70.09046875 -13.88574219 70.9309375 -13.53710938 71.796875 C-12.70126562 73.86882572 -11.85533351 75.93603615 -11 78 C-14.64167599 78.09662822 -16.83390538 77.87620422 -20 76 C-20 76.99 -20 77.98 -20 79 C-20.66 79 -21.32 79 -22 79 C-22.70078445 76.44048255 -23.38585196 73.87840298 -24.0625 71.3125 C-24.26166016 70.59126953 -24.46082031 69.87003906 -24.66601562 69.12695312 C-26.55378942 61.87392748 -26.55378942 61.87392748 -25 58 C-23.2578125 56.453125 -23.2578125 56.453125 -21.125 55.25 C-20.42632812 54.84265625 -19.72765625 54.4353125 -19.0078125 54.015625 C-17 53 -17 53 -14 52 C-13.731875 51.401875 -13.46375 50.80375 -13.1875 50.1875 C-10.68547309 45.57850306 -5.69093715 43.79991816 -1 42 C-7.27980887 39.29928888 -13.28460827 37.29975324 -20 36 C-20 35.34 -20 34.68 -20 34 C-30.73674287 34.15747223 -39.08724087 34.95252269 -47.5625 42.1875 C-49.05915362 43.94713932 -49.05915362 43.94713932 -50 46 C-49.34 46.33 -48.68 46.66 -48 47 C-53.75 51 -53.75 51 -56 51 C-55.02603765 45.71948121 -51.91543284 42.51108522 -48 39 C-40.02705564 33.5877093 -32.53884991 32.03077048 -23 32 C-22.86464844 31.40574219 -22.72929688 30.81148437 -22.58984375 30.19921875 C-20.39335961 21.74209717 -10.47602565 0 0 0 Z " fill="#617E3C" transform="translate(59,65)"/>
<path d="M0 0 C0.66 0 1.32 0 2 0 C3.05589069 1.63183107 4.0436126 3.30792999 5 5 C5.721875 6.03125 6.44375 7.0625 7.1875 8.125 C9 11 9 11 9 14 C9.66 14 10.32 14 11 14 C11.46109945 19.64846832 10.55910049 23.59049497 7 28 C2.41284803 32.50586067 -1.66634927 33.66664996 -8 34 C-11.08889116 28.98055186 -12.02490662 24.75594878 -11 19 C-9.59547382 15.50331503 -7.90032955 12.25092091 -6 9 C-5.34 9 -4.68 9 -4 9 C-3.67 11.97 -3.34 14.94 -3 18 C-2.01 17.67 -1.02 17.34 0 17 C0.02688151 15.35425434 0.04634123 13.70838587 0.0625 12.0625 C0.07410156 11.14597656 0.08570312 10.22945312 0.09765625 9.28515625 C0.25949049 7.03406673 0.25949049 7.03406673 -1 6 C-1.125 3.5 -1.125 3.5 -1 1 C-0.67 0.67 -0.34 0.34 0 0 Z " fill="#F6830F" transform="translate(96,13)"/>
<path d="M0 0 C0.66 0.33 1.32 0.66 2 1 C2 1.99 2 2.98 2 4 C1.34 4 0.68 4 0 4 C0.24621094 4.83144531 0.49242188 5.66289062 0.74609375 6.51953125 C1.09041845 11.23942823 -0.61902415 13.69774346 -2.9375 17.6875 C-6.43785684 24.17207327 -8.57497495 29.50926551 -7 37 C-5.68796267 40.5563993 -5.68796267 40.5563993 -4 43 C-2.41705218 43.05437607 -0.83355744 43.09296271 0.75 43.125 C2.07257813 43.15980469 2.07257813 43.15980469 3.421875 43.1953125 C6.25301949 42.98083186 7.67843847 42.62509307 10 41 C11.76841423 38.61545671 11.76841423 38.61545671 13.25 35.875 C13.77078125 34.96492188 14.2915625 34.05484375 14.828125 33.1171875 C15.21484375 32.41851562 15.6015625 31.71984375 16 31 C16.66 31.33 17.32 31.66 18 32 C17.10171882 38.15389646 16.13837856 42.02943475 11 46 C5.92646506 49.42168635 0.95081191 49.99027378 -5 49 C-9.37629152 47.1402606 -13.92550969 44.3930383 -16 40 C-17.21731913 34.61491027 -17.47903183 30.07611279 -15 25 C-13 23 -13 23 -11 21 C-10.30899447 19.00827818 -9.64097297 17.00838196 -9 15 C-8.53980469 14.56042969 -8.07960938 14.12085938 -7.60546875 13.66796875 C-5.49176286 11.47197747 -4.57580843 9.16706377 -3.375 6.375 C-1.08333333 1.08333333 -1.08333333 1.08333333 0 0 Z " fill="#66B9E0" transform="translate(101,158)"/>
<path d="M0 0 C0.99 0 1.98 0 3 0 C3.32613281 0.68707031 3.65226562 1.37414062 3.98828125 2.08203125 C4.64376953 3.43361328 4.64376953 3.43361328 5.3125 4.8125 C5.74175781 5.70582031 6.17101562 6.59914062 6.61328125 7.51953125 C7.89874597 9.81888365 9.13818117 11.18918991 11 13 C12.03101947 15.31979381 13.02936517 17.65429915 14 20 C14.598125 20.845625 15.19625 21.69125 15.8125 22.5625 C17 25 17 25 16.5 27.875 C14.03612682 33.00806913 11.57201921 37.92809394 6 40 C3.421875 40.1953125 3.421875 40.1953125 0.75 40.125 C-0.58804688 40.09792969 -0.58804688 40.09792969 -1.953125 40.0703125 C-2.62859375 40.04710937 -3.3040625 40.02390625 -4 40 C-4.66 38.68 -5.32 37.36 -6 36 C-5.34 36.33 -4.68 36.66 -4 37 C-2.12620395 37.07033769 -0.24998898 37.0843022 1.625 37.0625 C2.62789062 37.05347656 3.63078125 37.04445312 4.6640625 37.03515625 C5.43492188 37.02355469 6.20578125 37.01195312 7 37 C8.09506492 33.71480525 8.09960608 31.26336585 8.0625 27.8125 C8.05347656 26.72582031 8.04445313 25.63914063 8.03515625 24.51953125 C8.02355469 23.68808594 8.01195313 22.85664063 8 22 C6.5459375 22.4640625 6.5459375 22.4640625 5.0625 22.9375 C0.76335509 24.17967097 -3.55342634 24.61684853 -8 25 C-7.41892368 21.2397015 -6.34800504 18.46964968 -4.4375 15.1875 C-3.98246094 14.39730469 -3.52742188 13.60710937 -3.05859375 12.79296875 C-2.70925781 12.20128906 -2.35992187 11.60960937 -2 11 C-1.01 11 -0.02 11 1 11 C0.67 7.37 0.34 3.74 0 0 Z " fill="#188AC1" transform="translate(101,162)"/>
<path d="M0 0 C1.3921875 0.4640625 1.3921875 0.4640625 2.8125 0.9375 C8.69058032 2.6324066 14.9033655 3 21 3 C26.42394498 3.6508734 31.687601 4.75923561 37 6 C37.75 8.125 37.75 8.125 38 11 C34.9375 16.6875 34.9375 16.6875 31 18 C19.72625204 17.47766419 9.45072074 10.83085559 1.29296875 3.48046875 C0 2 0 2 0 0 Z " fill="#77725C" transform="translate(54,166)"/>
<path d="M0 0 C5.4684886 0.91537744 7.85767131 4.70927006 11 9 C12.52979703 11.35608055 13.96769077 13.75654843 15.375 16.1875 C15.72079102 16.78135498 16.06658203 17.37520996 16.42285156 17.98706055 C18.27530586 21.29746499 19.50319577 24.23138507 20 28 C21.65 28 23.3 28 25 28 C25 29.65 25 31.3 25 33 C23.515 33.495 23.515 33.495 22 34 C22 34.66 22 35.32 22 36 C21.34 36 20.68 36 20 36 C20 36.66 20 37.32 20 38 C18.68 38.66 17.36 39.32 16 40 C16 41.65 16 43.3 16 45 C14.22821947 44.043419 12.45760924 43.08467012 10.6875 42.125 C9.70136719 41.59132812 8.71523437 41.05765625 7.69921875 40.5078125 C5 39 5 39 2 37 C2 36.01 2 35.02 2 34 C3.485 33.505 3.485 33.505 5 33 C5 32.01 5 31.02 5 30 C5.33 29.34 5.66 28.68 6 28 C13.75 28.875 13.75 28.875 16 30 C10.87397514 17.03176947 10.87397514 17.03176947 3.2265625 5.5078125 C1.82593757 3.78602516 0.93035128 2.00851539 0 0 Z " fill="#A7B0B2" transform="translate(146,68)"/>
<path d="M0 0 C1.3921875 0.3403125 1.3921875 0.3403125 2.8125 0.6875 C2.791875 1.615625 2.77125 2.54375 2.75 3.5 C2.65480396 6.71036011 2.65480396 6.71036011 3.8125 9.6875 C4.8025 10.0175 5.7925 10.3475 6.8125 10.6875 C9.65179797 16.02724967 10.42698019 21.74752481 9.8125 27.6875 C8.5 29.375 8.5 29.375 6.8125 30.6875 C6.3175 31.5125 5.8225 32.3375 5.3125 33.1875 C2.9125 37.1875 2.9125 37.1875 0.8125 38.6875 C-1.51664823 39.04891955 -3.85003478 39.38449525 -6.1875 39.6875 C-6.5175 40.3475 -6.8475 41.0075 -7.1875 41.6875 C-7.1875 41.0275 -7.1875 40.3675 -7.1875 39.6875 C-8.5075 39.0275 -9.8275 38.3675 -11.1875 37.6875 C-10.59582031 37.51734375 -10.00414063 37.3471875 -9.39453125 37.171875 C-3.26369993 35.29162005 1.04864379 33.52226892 4.5625 27.875 C5.90489801 24.45188508 6.44758109 21.33668912 6.8125 17.6875 C6.1525 17.6875 5.4925 17.6875 4.8125 17.6875 C4.55855469 17.14480469 4.30460937 16.60210938 4.04296875 16.04296875 C3.69878906 15.32753906 3.35460937 14.61210937 3 13.875 C2.66355469 13.16730469 2.32710937 12.45960937 1.98046875 11.73046875 C0.9073316 9.63080787 0.9073316 9.63080787 -0.82421875 8.11328125 C-2.1875 6.6875 -2.1875 6.6875 -2.1875 3.6875 C-3.1775 4.1825 -3.1775 4.1825 -4.1875 4.6875 C-4.230221 6.35361905 -4.22813832 8.02132885 -4.1875 9.6875 C-3.8575 10.0175 -3.5275 10.3475 -3.1875 10.6875 C-3.11544489 12.37358966 -3.10363932 14.06250659 -3.125 15.75 C-3.13402344 16.66910156 -3.14304687 17.58820312 -3.15234375 18.53515625 C-3.16394531 19.24542969 -3.17554687 19.95570312 -3.1875 20.6875 C-4.5075 21.0175 -5.8275 21.3475 -7.1875 21.6875 C-6.5275 21.0275 -5.8675 20.3675 -5.1875 19.6875 C-4.91634011 16.09463144 -4.88968808 13.42327062 -6.25 10.0625 C-7.41494783 7.11129882 -7.20628278 5.66548042 -6.1875 2.6875 C-4.27692554 -0.32919652 -3.62692422 -0.35558081 0 0 Z " fill="#EF6721" transform="translate(100.1875,9.3125)"/>
<path d="M0 0 C0.99 0.33 1.98 0.66 3 1 C-6.00154274 7.11740594 -14.56797881 10.99880995 -25 14 C-29.53571429 7.55357143 -29.53571429 7.55357143 -29 3 C-19.58997722 1.66742597 -19.58997722 1.66742597 -15 3 C-14.67 2.34 -14.34 1.68 -14 1 C-13.15695313 1.01160156 -12.31390625 1.02320313 -11.4453125 1.03515625 C-10.34960938 1.04417969 -9.25390625 1.05320313 -8.125 1.0625 C-7.03445312 1.07410156 -5.94390625 1.08570313 -4.8203125 1.09765625 C-2.04822454 1.19744303 -2.04822454 1.19744303 0 0 Z " fill="#716A54" transform="translate(141,171)"/>
<path d="M0 0 C0 0.66 0 1.32 0 2 C-0.99 2.495 -0.99 2.495 -2 3 C-2.33 3.99 -2.66 4.98 -3 6 C-3.99 6.66 -4.98 7.32 -6 8 C-6.25030977 10.58380177 -6.25030977 10.58380177 -6 13 C2.47776775 14.91483279 10.54461147 14.62650664 18.74609375 11.75390625 C21.14364379 10.95195277 23.51485036 10.45144694 26 10 C24.99135853 12.73364763 24.34655349 13.81047856 21.75 15.23046875 C12.02629692 18.61442792 3.00947612 20.42188672 -7 17 C-9.52592763 15.15176027 -10.56279133 13.87441735 -11.9375 11.125 C-12.03764199 7.72017241 -10.85467579 5.81192782 -9 3 C-5.74533864 0.96583665 -3.8455896 0 0 0 Z " fill="#F1EFED" transform="translate(74,130)"/>
<path d="M0 0 C3.55977185 2.46445743 6.7807087 4.73248044 8 9 C8.45384141 14.62763352 8.16579197 18.13824805 5 23 C2.8125 24.875 2.8125 24.875 1 26 C3 22 3 22 4.0625 20.1875 C5.19141128 17.55337368 5.20008831 15.60335563 5.125 12.75 C5.09792969 11.41195312 5.09792969 11.41195312 5.0703125 10.046875 C5.04710938 9.37140625 5.02390625 8.6959375 5 8 C5 8.66 5 9.32 5 10 C5 11.66666667 5 13.33333333 5 15 C4.34 15 3.68 15 3 15 C2.87625 13.88625 2.7525 12.7725 2.625 11.625 C2.3534187 7.96896323 2.3534187 7.96896323 0 6 C-2.95769177 5.49989476 -2.95769177 5.49989476 -6 6 C-8.04826062 7.47959573 -8.04826062 7.47959573 -9 10 C-9.38503486 14.38939738 -9.47342266 16.28986601 -7 20 C-7 20.99 -7 21.98 -7 23 C-9.37816148 22.04873541 -10.73104425 21.43146965 -12.10546875 19.2265625 C-13.71471097 15.22102509 -13.67277869 11.22984621 -13 7 C-9.97884793 1.39570676 -6.28093034 -0.72472273 0 0 Z " fill="#F0ECEC" transform="translate(106,69)"/>
<path d="M0 0 C0.66 0.33 1.32 0.66 2 1 C2 1.99 2 2.98 2 4 C1.34 4 0.68 4 0 4 C0.24621094 4.83144531 0.49242188 5.66289062 0.74609375 6.51953125 C1.09036827 11.23874043 -0.61828765 13.69860837 -2.9375 17.6875 C-7.57269143 26.23274253 -8.00452031 32.51642913 -6 42 C-6.66 41.67 -7.32 41.34 -8 41 C-8.59765625 38.6015625 -8.59765625 38.6015625 -9.0625 35.625 C-9.54455328 32.60519514 -10.03117362 29.90647913 -11 27 C-11.99 27 -12.98 27 -14 27 C-14.33 27.99 -14.66 28.98 -15 30 C-15.33 29.34 -15.66 28.68 -16 28 C-15 25 -15 25 -13.0625 23.1875 C-10.62198104 20.5990708 -10.07049884 18.35422971 -9 15 C-8.53980469 14.56042969 -8.07960938 14.12085938 -7.60546875 13.66796875 C-5.49176286 11.47197747 -4.57580843 9.16706377 -3.375 6.375 C-1.08333333 1.08333333 -1.08333333 1.08333333 0 0 Z " fill="#6ABDE6" transform="translate(101,158)"/>
<path d="M0 0 C2.31 0.33 4.62 0.66 7 1 C6 4 6 4 4.35546875 5.16796875 C-1.4473081 7.89684219 -6.20546459 8.34141138 -12.59375 8.04296875 C-13.3878125 8.02878906 -14.181875 8.01460937 -15 8 C-15.33 8.33 -15.66 8.66 -16 9 C-17.58263877 9.046893 -19.16710998 9.03746485 -20.75 9 C-24.31706228 8.95911676 -27.52875433 9.07433449 -31 10 C-31 9.01 -31 8.02 -31 7 C-30.23816406 6.81824219 -29.47632812 6.63648438 -28.69140625 6.44921875 C-23.72591614 5.24039157 -18.86394878 4.00999052 -14.0625 2.25 C-10.6465886 1.04948041 -8.53575006 0.92856059 -5 2 C-4.34 1.67 -3.68 1.34 -3 1 C-2.01 1.33 -1.02 1.66 0 2 C0 1.34 0 0.68 0 0 Z " fill="#7E775D" transform="translate(142,165)"/>
<path d="M0 0 C-1.48510716 3.3433951 -3.43123617 5.79877697 -5.8125 8.5625 C-9.9933097 13.69589926 -12.46669485 18.9326891 -15 25 C-16.29507952 27.68782077 -17.64559425 30.34135168 -19 33 C-20.32 32.67 -21.64 32.34 -23 32 C-20.96347753 23.05869659 -11.13771459 0 0 0 Z " fill="#766E5D" transform="translate(59,65)"/>
<path d="M0 0 C2.19680576 0.25296551 3.83455003 -0.13148414 5.93359375 -0.77734375 C6.59359375 -0.44734375 7.25359375 -0.11734375 7.93359375 0.22265625 C6.62289939 4.15473934 5.53522297 7.02654087 1.93359375 9.22265625 C-5.61949762 9.14860633 -11.83641722 6.25292076 -18.06640625 2.22265625 C-15.06640625 1.22265625 -15.06640625 1.22265625 -12.06640625 1.28515625 C-7.32460285 1.18636868 -5.17857845 -0.82667216 0 0 Z " fill="#605644" transform="translate(84.06640625,174.77734375)"/>
<path d="M0 0 C2.57153744 2.13201446 3.62198036 4.08708752 4.53125 7.26953125 C3.71875 10.14453125 3.71875 10.14453125 2.53125 12.26953125 C2.03625 10.28953125 2.03625 10.28953125 1.53125 8.26953125 C0.87125 8.59953125 0.21125 8.92953125 -0.46875 9.26953125 C-0.71625 8.48578125 -0.96375 7.70203125 -1.21875 6.89453125 C-2.70668918 3.76985897 -3.27572375 3.41817766 -6.46875 2.26953125 C-14.93566699 1.59217789 -23.24405293 2.10208167 -31.46875 4.26953125 C-30.46875 1.26953125 -30.46875 1.26953125 -28.421875 0.1015625 C-19.27723288 -3.3475005 -8.84018788 -5.30036689 0 0 Z " fill="#F5F1EE" transform="translate(139.46875,132.73046875)"/>
<path d="M0 0 C1 3 1 3 0.03125 5.2265625 C-4.13193687 11.74747254 -4.13193687 11.74747254 -8.4375 13 C-9.613125 13 -10.78875 13 -12 13 C-13.9490625 13.2784375 -13.9490625 13.2784375 -15.9375 13.5625 C-16.948125 13.706875 -17.95875 13.85125 -19 14 C-16.16982952 5.91379864 -8.7502188 -0.74089444 0 0 Z " fill="#C9C699" transform="translate(158,149)"/>
<path d="M0 0 C1.65 0 3.3 0 5 0 C6.96189209 3.6678852 8.39301257 6.87248551 9 11 C4.01770224 12.91626837 -0.72684667 13.5547115 -6 14 C-5.41892368 10.2397015 -4.34800504 7.46964968 -2.4375 4.1875 C-1.98246094 3.39730469 -1.52742188 2.60710937 -1.05859375 1.79296875 C-0.53458984 0.90544922 -0.53458984 0.90544922 0 0 Z " fill="#403930" transform="translate(99,173)"/>
<path d="M0 0 C3.30081791 1.61897259 6.52557433 3.35924309 9.75 5.125 C11.22726563 5.93324219 11.22726563 5.93324219 12.734375 6.7578125 C13.48203125 7.16773438 14.2296875 7.57765625 15 8 C15 8.66 15 9.32 15 10 C14.401875 9.814375 13.80375 9.62875 13.1875 9.4375 C10.83591238 8.77906313 10.83591238 8.77906313 8 10 C1.49457202 9.95856415 -4.30349281 9.20428529 -10 6 C-11.9375 3.8125 -11.9375 3.8125 -13 2 C-12.34 1.67 -11.68 1.34 -11 1 C-11 1.66 -11 2.32 -11 3 C-10.4225 2.835 -9.845 2.67 -9.25 2.5 C-6.48507289 1.88557175 -3.81970114 2 -1 2 C-0.67 1.34 -0.34 0.68 0 0 Z " fill="#969170" transform="translate(62,160)"/>
<path d="M0 0 C0.33 0.66 0.66 1.32 1 2 C3.01669827 3.13350534 3.01669827 3.13350534 5 4 C5.1799928 9.21979128 4.97094808 13.07262981 3 18 C2.34 17.67 1.68 17.34 1 17 C1 16.34 1 15.68 1 15 C-1.41619823 14.74969023 -1.41619823 14.74969023 -4 15 C-4.99 16.485 -4.99 16.485 -6 18 C-6.66 17.67 -7.32 17.34 -8 17 C-6.85700498 14.35290709 -5.71075628 11.70730948 -4.5625 9.0625 C-4.23701172 8.30775391 -3.91152344 7.55300781 -3.57617188 6.77539062 C-1.11328125 1.11328125 -1.11328125 1.11328125 0 0 Z " fill="#50473B" transform="translate(163,124)"/>
<path d="M0 0 C5.4684886 0.91537744 7.85767131 4.70927006 11 9 C12.52979703 11.35608055 13.96769077 13.75654843 15.375 16.1875 C15.72079102 16.78135498 16.06658203 17.37520996 16.42285156 17.98706055 C18.27530586 21.29746499 19.50319577 24.23138507 20 28 C19.34 28 18.68 28 18 28 C17.34 28.66 16.68 29.32 16 30 C15.49210938 28.7934375 14.98421875 27.586875 14.4609375 26.34375 C9.91432278 15.30693196 9.91432278 15.30693196 3.2265625 5.5078125 C1.82593757 3.78602516 0.93035128 2.00851539 0 0 Z " fill="#7A7461" transform="translate(146,68)"/>
<path d="M0 0 C0.99 0.66 1.98 1.32 3 2 C3.43132515 6.05445642 3.30019361 7.54970958 1 11 C-0.32 10.67 -1.64 10.34 -3 10 C-2.34 9.01 -1.68 8.02 -1 7 C-1 6.01 -1 5.02 -1 4 C-4.87857869 4.68108129 -8.46898812 5.77372383 -12.1875 7.0625 C-17.77935943 9 -17.77935943 9 -20 9 C-20 8.34 -20 7.68 -20 7 C-21.65 7 -23.3 7 -25 7 C-23 6 -21 5 -19 4 C-18.67 3.34 -18.34 2.68 -18 2 C-17.01 2.3403125 -17.01 2.3403125 -16 2.6875 C-12.3304767 3.06974201 -10.27365708 2.085395 -6.92578125 0.7109375 C-4.48468641 -0.19023747 -2.57373983 -0.36767712 0 0 Z " fill="#BAC3C6" transform="translate(192,107)"/>
<path d="M0 0 C3.46381579 3.46381579 3.46381579 3.46381579 3.5625 7.5625 C3.34585805 13.72776872 1.13452522 18.44444369 -3 23 C-5.27333753 24.27605302 -7.48387345 25.1382366 -9.94140625 25.99609375 C-13.49411926 27.72863121 -14.44375132 30.48152472 -16 34 C-16.66 34 -17.32 34 -18 34 C-16.125 28.25 -16.125 28.25 -15 26 C-14.34 26 -13.68 26 -13 26 C-12.67 25.01 -12.34 24.02 -12 23 C-6.62857143 19 -6.62857143 19 -4 19 C-3.896875 18.443125 -3.79375 17.88625 -3.6875 17.3125 C-2.85821592 14.5230899 -1.65700944 12.3860936 0 10 C0.66 10 1.32 10 2 10 C1.34 6.7 0.68 3.4 0 0 Z " fill="#F6F4F2" transform="translate(109,74)"/>
<path d="M0 0 C4.95254097 4.41713114 7.53727917 8.30840304 8.35546875 14.8359375 C8.68420387 21.8904154 7.70960536 26.6445059 3 32 C-0.28144502 34.99190575 -2.89808847 35.93878269 -7.375 36.1875 C-10.8556967 36.00746396 -12.99254151 35.71854771 -16 34 C-17.3125 31.875 -17.3125 31.875 -18 30 C-17.34 30 -16.68 30 -16 30 C-16 30.66 -16 31.32 -16 32 C-15.34 32 -14.68 32 -14 32 C-14 32.66 -14 33.32 -14 34 C-10.04 34 -6.08 34 -2 34 C-2 33.34 -2 32.68 -2 32 C-1.21625 31.566875 -0.4325 31.13375 0.375 30.6875 C3.56911544 28.63414007 3.92793079 27.59167886 5 24 C5.27812439 20.5181949 5.27812439 20.5181949 5.1875 16.875 C5.18105469 15.65554687 5.17460938 14.43609375 5.16796875 13.1796875 C5.14001516 9.97714128 5.14001516 9.97714128 4 7 C3.01 6.67 2.02 6.34 1 6 C0.67 4.02 0.34 2.04 0 0 Z " fill="#CD623C" transform="translate(109,19)"/>
<path d="M0 0 C2.7175283 0.46586199 5.02841528 1.012475 7.5625 2.125 C10.41593125 3.14930865 11.15513501 2.81281857 14 2 C16.6730727 1.90214185 19.32386233 1.95539771 22 2 C20.60147088 4.79705825 18.86348142 4.90914993 16 6 C15.01 6.66 14.02 7.32 13 8 C16.96 8 20.92 8 25 8 C23 11 23 11 20 12 C12.84381339 12.45436105 12.84381339 12.45436105 9.5625 10.6875 C8 9 8 9 7 6 C5.01924973 4.63823419 3.01920337 3.30406884 1 2 C0.67 1.34 0.34 0.68 0 0 Z " fill="#A3A7A7" transform="translate(156,117)"/>
<path d="M0 0 C3.44004627 1.14668209 4.26635169 1.87943304 6 5 C6 9.7135059 3.13191969 13.64859268 0 17 C-3.12648934 19.03786035 -5.56014551 19.22210143 -9.25 19.125 C-10.14203125 19.10695312 -11.0340625 19.08890625 -11.953125 19.0703125 C-12.62859375 19.04710937 -13.3040625 19.02390625 -14 19 C-14.66 17.68 -15.32 16.36 -16 15 C-15.01 15.495 -15.01 15.495 -14 16 C-12.12620395 16.07033769 -10.24998898 16.0843022 -8.375 16.0625 C-7.37210938 16.05347656 -6.36921875 16.04445312 -5.3359375 16.03515625 C-4.56507812 16.02355469 -3.79421875 16.01195312 -3 16 C-2.67 15.01 -2.34 14.02 -2 13 C-1.34 13 -0.68 13 0 13 C0 8.71 0 4.42 0 0 Z " fill="#0896DE" transform="translate(111,183)"/>
<path d="M0 0 C-3.4928623 3.06975784 -7.39015404 4.32350282 -11.75 5.6875 C-12.44738281 5.91244141 -13.14476563 6.13738281 -13.86328125 6.36914062 C-15.57332344 6.91963366 -17.28637529 7.46076237 -19 8 C-20.98 4.535 -20.98 4.535 -23 1 C-17.63408297 0.40614357 -12.40205858 0 -7 0 C-4.3333581 -1.33332095 -2.83319697 -0.67102033 0 0 Z " fill="#5A5240" transform="translate(135,177)"/>
<path d="M0 0 C2.34614509 0.38936025 3.6912788 0.69810136 5.4140625 2.3828125 C10.41297314 9.57479362 11.43611766 15.44151505 10 24 C11.32 24 12.64 24 14 24 C14 24.66 14 25.32 14 26 C13.0925 25.690625 12.185 25.38125 11.25 25.0625 C8.83436662 24.2727737 6.47219715 23.57050703 4 23 C4 22.34 4 21.68 4 21 C4.66 21 5.32 21 6 21 C6.43960919 12.79396186 4.51863523 6.8855394 0 0 Z " fill="#F5F2EF" transform="translate(107,98)"/>
<path d="M0 0 C3.50150804 0.29179234 4.78286467 0.78286467 7.3125 3.3125 C9 6 9 6 9 10 C9.59167969 9.96519531 10.18335938 9.93039063 10.79296875 9.89453125 C15.64743558 9.72822814 19.14586893 9.64317616 23 13 C23 13.99 23 14.98 23 16 C22.31550781 15.69320312 21.63101563 15.38640625 20.92578125 15.0703125 C17.67122494 13.87972715 14.61620914 13.35986796 11.1875 12.875 C9.44533203 12.62363281 9.44533203 12.62363281 7.66796875 12.3671875 C6.78753906 12.24601562 5.90710938 12.12484375 5 12 C4.89042969 11.36191406 4.78085938 10.72382812 4.66796875 10.06640625 C4.50941406 9.24011719 4.35085937 8.41382812 4.1875 7.5625 C3.96126953 6.32693359 3.96126953 6.32693359 3.73046875 5.06640625 C3.48941406 4.38449219 3.24835938 3.70257813 3 3 C2.01 2.67 1.02 2.34 0 2 C0 1.34 0 0.68 0 0 Z " fill="#9D9F9E" transform="translate(180,86)"/>
<path d="M0 0 C2.97 0.495 2.97 0.495 6 1 C6.33 1.99 6.66 2.98 7 4 C7.99 4 8.98 4 10 4 C10.99 6.31 11.98 8.62 13 11 C9.37471432 11.20140476 7.13498292 10.85776765 4 9 C4 9.99 4 10.98 4 12 C3.34 12 2.68 12 2 12 C0.40861915 7.82262526 -0.21278058 4.46839215 0 0 Z " fill="#7D785F" transform="translate(35,132)"/>
<path d="M0 0 C1.8125 0.125 1.8125 0.125 4 1 C5.75 4.0625 5.75 4.0625 7 7 C7.99 6.67 8.98 6.34 10 6 C11.01911045 9.89114901 11.16782969 11.60596507 9.5625 15.375 C9.046875 16.24125 8.53125 17.1075 8 18 C5.66666667 18 3.33333333 18 1 18 C0.01 18.33 -0.98 18.66 -2 19 C-2 18.34 -2 17.68 -2 17 C0.5 15.375 0.5 15.375 3 14 C2.67 12.02 2.34 10.04 2 8 C2.66 8 3.32 8 4 8 C2.87548273 5.0280615 1.77706209 2.66559313 0 0 Z M6 9 C7 13 7 13 7 13 Z M5 13 C6 15 6 15 6 15 Z " fill="#9DA2A3" transform="translate(197,102)"/>
<path d="M0 0 C9.13470681 1.0110935 9.13470681 1.0110935 12.625 5 C14 8 14 8 14 10 C13.0925 9.62875 12.185 9.2575 11.25 8.875 C8.14234448 7.72160674 8.14234448 7.72160674 5.6875 8.75 C3.85705945 9.90877315 3.85705945 9.90877315 3 12 C-1.09326923 5.67403846 -1.09326923 5.67403846 -0.62109375 2.26171875 C-0.41613281 1.51535156 -0.21117187 0.76898438 0 0 Z " fill="#A5A07F" transform="translate(39,141)"/>
<path d="M0 0 C0.99 0 1.98 0 3 0 C5.72106694 2.72106694 5.60655572 4.84776311 6.125 8.625 C6.29257813 9.81351563 6.46015625 11.00203125 6.6328125 12.2265625 C6.75398438 13.14179688 6.87515625 14.05703125 7 15 C5.35 15.33 3.7 15.66 2 16 C-1.12601611 11.65076019 -1.74599505 8.24943557 -2 3 C-1.34 2.01 -0.68 1.02 0 0 Z " fill="#6ACAF7" transform="translate(87,185)"/>
<path d="M0 0 C1.65 4.62 3.3 9.24 5 14 C4.01 14 3.02 14 2 14 C1 13 0 12 -1 11 C-3.10332891 10.28552357 -3.10332891 10.28552357 -5 10 C-5.33 10.66 -5.66 11.32 -6 12 C-6.33 8.7 -6.66 5.4 -7 2 C-4 0 -4 0 0 0 Z " fill="#3E362C" transform="translate(40,122)"/>
<path d="M0 0 C0.66 0.33 1.32 0.66 2 1 C1.09326955 7.21178022 0.05280742 10.85410673 -5 15 C-5.33 15.33 -5.66 15.66 -6 16 C-7.68608966 16.07205511 -9.37500659 16.08386068 -11.0625 16.0625 C-11.98160156 16.05347656 -12.90070313 16.04445312 -13.84765625 16.03515625 C-14.55792969 16.02355469 -15.26820312 16.01195312 -16 16 C-16.33 15.34 -16.66 14.68 -17 14 C-16.39671875 13.82984375 -15.7934375 13.6596875 -15.171875 13.484375 C-6.91697101 10.98127508 -4.00965564 7.44650333 0 0 Z " fill="#65CEFC" transform="translate(117,189)"/>
<path d="M0 0 C0.33 0.66 0.66 1.32 1 2 C1.99 2 2.98 2 4 2 C4 1.34 4 0.68 4 0 C6.88437779 1.29299694 8.87219421 2.65941363 11 5 C9 8 9 8 5.875 8.6875 C4.92625 8.790625 3.9775 8.89375 3 9 C3 8.34 3 7.68 3 7 C2.13375 7.309375 2.13375 7.309375 1.25 7.625 C-1.60648841 8.1010814 -2.64590418 7.64786707 -5 6 C-6.25 3.875 -6.25 3.875 -7 2 C-6.401875 2.226875 -5.80375 2.45375 -5.1875 2.6875 C-4.465625 2.790625 -3.74375 2.89375 -3 3 C-1.22809091 1.64555699 -1.22809091 1.64555699 0 0 Z " fill="#B4B089" transform="translate(52,155)"/>
<path d="M0 0 C1.3921875 0.3403125 1.3921875 0.3403125 2.8125 0.6875 C2.77125 1.574375 2.73 2.46125 2.6875 3.375 C2.81147246 6.66027013 3.42637904 8.74199295 4.8125 11.6875 C2.18348712 10.16543991 -0.03115964 8.84384036 -2.1875 6.6875 C-2.1875 5.6975 -2.1875 4.7075 -2.1875 3.6875 C-3.1775 4.1825 -3.1775 4.1825 -4.1875 4.6875 C-4.230221 6.35361905 -4.22813832 8.02132885 -4.1875 9.6875 C-3.8575 10.0175 -3.5275 10.3475 -3.1875 10.6875 C-3.11544489 12.37358966 -3.10363932 14.06250659 -3.125 15.75 C-3.13402344 16.66910156 -3.14304687 17.58820312 -3.15234375 18.53515625 C-3.16394531 19.24542969 -3.17554687 19.95570312 -3.1875 20.6875 C-4.5075 21.0175 -5.8275 21.3475 -7.1875 21.6875 C-6.5275 21.0275 -5.8675 20.3675 -5.1875 19.6875 C-4.91634011 16.09463144 -4.88968808 13.42327062 -6.25 10.0625 C-7.41494783 7.11129882 -7.20628278 5.66548042 -6.1875 2.6875 C-4.27692554 -0.32919652 -3.62692422 -0.35558081 0 0 Z " fill="#DD741F" transform="translate(100.1875,9.3125)"/>
<path d="M0 0 C1.125 3.75 1.125 3.75 0 6 C1.65 5.34 3.3 4.68 5 4 C5 4.99 5 5.98 5 7 C3.68 7.33 2.36 7.66 1 8 C1.33 8.99 1.66 9.98 2 11 C1.34 11.66 0.68 12.32 0 13 C-1.67427615 12.07615834 -3.33928003 11.13549431 -5 10.1875 C-6.3921875 9.40439453 -6.3921875 9.40439453 -7.8125 8.60546875 C-8.8953125 7.81076172 -8.8953125 7.81076172 -10 7 C-10 6.01 -10 5.02 -10 4 C-8.5459375 3.814375 -8.5459375 3.814375 -7.0625 3.625 C-5.5465625 3.315625 -5.5465625 3.315625 -4 3 C-3.67 2.34 -3.34 1.68 -3 1 C-2.01 0.67 -1.02 0.34 0 0 Z " fill="#AEB6B7" transform="translate(158,98)"/>
<path d="M0 0 C0.99 0 1.98 0 3 0 C4.24528932 2.49057864 4.25158635 4.47267769 4.4375 7.25 C4.7794704 11.44741093 5.40517696 15.06610317 7 19 C5.33333333 19 3.66666667 19 2 19 C0 16 0 16 0.375 12.8125 C0.58125 11.884375 0.7875 10.95625 1 10 C0.34 10 -0.32 10 -1 10 C-0.67 6.7 -0.34 3.4 0 0 Z " fill="#ED622C" transform="translate(102,0)"/>
<path d="M0 0 C0.66 0 1.32 0 2 0 C2.33 0.66 2.66 1.32 3 2 C4.97888961 2.72693904 6.97954558 3.39816251 9 4 C9.625 6.3125 9.625 6.3125 10 9 C9.01 10.485 9.01 10.485 8 12 C7.01 11.67 6.02 11.34 5 11 C4.67 9.35 4.34 7.7 4 6 C3.62875 6.66 3.2575 7.32 2.875 8 C1 10 1 10 -2.0625 10.375 C-5 10 -5 10 -7 8 C-7 7.01 -7 6.02 -7 5 C-5.68 5.33 -4.36 5.66 -3 6 C-3.33 6.66 -3.66 7.32 -4 8 C-2.68 8 -1.36 8 0 8 C0 5.36 0 2.72 0 0 Z " fill="#9EA1A1" transform="translate(190,120)"/>
<path d="M0 0 C4.72762079 0.96482057 7.56092003 3.64564459 10.4375 7.4375 C11.8255171 12.29555987 11.5615333 16.30256176 9.8125 20.9375 C8.10894494 23.55367384 6.69416416 24.99155328 4.0625 26.625 C6.0625 22.625 6.0625 22.625 7.10546875 20.79296875 C8.84327729 16.85630043 8.72121748 12.82856824 8.0625 8.625 C6.14338544 5.3710079 6.14338544 5.3710079 3.0625 3.625 C-1.1552461 3.00991203 -4.1158948 3.82659755 -7.9375 5.625 C-3.85308442 0.81980519 -3.85308442 0.81980519 0 0 Z " fill="#E5E0DE" transform="translate(102.9375,68.375)"/>
<path d="M0 0 C0.66 0.33 1.32 0.66 2 1 C2 1.99 2 2.98 2 4 C1.34 4 0.68 4 0 4 C0.3403125 5.2684375 0.3403125 5.2684375 0.6875 6.5625 C1.09143364 11.00577003 -0.02697599 13.05395199 -2 17 C-2.66 16.01 -3.32 15.02 -4 14 C-6.475 17.465 -6.475 17.465 -9 21 C-10 19 -10 19 -9.75 17.0625 C-9 15 -9 15 -7.6171875 13.72265625 C-5.52226032 11.49110338 -4.58144488 9.18016938 -3.375 6.375 C-1.08333333 1.08333333 -1.08333333 1.08333333 0 0 Z " fill="#6FB2D3" transform="translate(101,158)"/>
<path d="M0 0 C-1.03639886 2.93646343 -1.69453751 3.84726875 -4.53125 5.265625 C-5.5109375 5.59046875 -6.490625 5.9153125 -7.5 6.25 C-8.4796875 6.58515625 -9.459375 6.9203125 -10.46875 7.265625 C-13 8 -13 8 -15 8 C-15 7.34 -15 6.68 -15 6 C-16.85625 6.309375 -16.85625 6.309375 -18.75 6.625 C-22.20319878 7.20053313 -23.98029681 6.78189692 -27 5 C-25.28103516 4.83564453 -25.28103516 4.83564453 -23.52734375 4.66796875 C-21.99733473 4.50839726 -20.46739005 4.34820805 -18.9375 4.1875 C-18.18533203 4.11724609 -17.43316406 4.04699219 -16.65820312 3.97460938 C-10.91718434 3.353287 -5.50722996 0 0 0 Z " fill="#F5F1F0" transform="translate(100,140)"/>
<path d="M0 0 C0.7425 0.2475 1.485 0.495 2.25 0.75 C3.19693195 4.4516431 3.55443767 6.14112465 1.8125 9.625 C1.296875 10.32625 0.78125 11.0275 0.25 11.75 C-0.75 8.75 -0.75 8.75 0.25 5.75 C-4.7 7.235 -4.7 7.235 -9.75 8.75 C-4.65384615 -0.42307692 -4.65384615 -0.42307692 0 0 Z " fill="#827B62" transform="translate(161.75,138.25)"/>
<path d="M0 0 C1.875 0.1875 1.875 0.1875 4 1 C6.64553062 5.23284899 6.6515668 10.17357926 6 15 C4.28782235 20.25684813 1.79482583 24.07632572 -3 27 C-5.8125 27.75 -5.8125 27.75 -8 28 C-8.33 27.34 -8.66 26.68 -9 26 C-8.113125 25.608125 -7.22625 25.21625 -6.3125 24.8125 C-1.68762607 22.2819086 2.20629288 19.08217018 4 14 C4.38749213 11.67504723 4.72982839 9.34148732 5 7 C4.34 7 3.68 7 3 7 C2.01 4.69 1.02 2.38 0 0 Z " fill="#EC7013" transform="translate(102,20)"/>
<path d="M0 0 C1.3921875 0.4640625 1.3921875 0.4640625 2.8125 0.9375 C8.69058032 2.6324066 14.9033655 3 21 3 C19.20182733 5.2739778 18.14602867 5.96291335 15.29296875 6.6875 C5.87585125 7.63513447 5.87585125 7.63513447 2.25 4.6875 C0 2 0 2 0 0 Z " fill="#827D62" transform="translate(54,166)"/>
<path d="M0 0 C0.598125 0.165 1.19625 0.33 1.8125 0.5 C4.27996352 1.06399166 5.5964217 0.64095421 8 0 C8.66 0.33 9.32 0.66 10 1 C8.68775452 4.93673644 7.08089673 7.22719294 4 10 C4 9.01 4 8.02 4 7 C2.68 6.67 1.36 6.34 0 6 C-0.38218767 4.34385343 -0.71395102 2.67542976 -1 1 C-0.67 0.67 -0.34 0.34 0 0 Z " fill="#5D5847" transform="translate(82,174)"/>
<path d="M0 0 C1.32 0.66 2.64 1.32 4 2 C1.82575883 4.50037734 0.26954202 5.43628586 -3 6 C-3 5.34 -3 4.68 -3 4 C-3.969375 4.144375 -4.93875 4.28875 -5.9375 4.4375 C-10.28052169 5.06047442 -14.63765234 5.53507859 -19 6 C-19 5.34 -19 4.68 -19 4 C-9.93528904 0.50445787 -9.93528904 0.50445787 -5 2 C-4.34 1.67 -3.68 1.34 -3 1 C-2.01 1.33 -1.02 1.66 0 2 C0 1.34 0 0.68 0 0 Z " fill="#8C876A" transform="translate(142,165)"/>
<path d="M0 0 C1.32 0.66 2.64 1.32 4 2 C3.67 3.32 3.34 4.64 3 6 C-1.01796803 6.63807354 -4.92733363 7.15164183 -9 7 C-11.75 4.5625 -11.75 4.5625 -13 2 C-12.34 1.67 -11.68 1.34 -11 1 C-11 1.66 -11 2.32 -11 3 C-10.4225 2.835 -9.845 2.67 -9.25 2.5 C-6.48507289 1.88557175 -3.81970114 2 -1 2 C-0.67 1.34 -0.34 0.68 0 0 Z " fill="#9E9977" transform="translate(62,160)"/>
<path d="M0 0 C0 0.66 0 1.32 0 2 C3.96 2 7.92 2 12 2 C12 2.66 12 3.32 12 4 C9.11777664 5.44111168 6.81963279 4.92799483 3.625 4.6875 C2.48289062 4.60886719 1.34078125 4.53023437 0.1640625 4.44921875 C-2.71698835 4.04018067 -4.53669677 3.48647608 -7 2 C-7 1.34 -7 0.68 -7 0 C-3.86650268 -1.04449911 -3.01031744 -0.93423645 0 0 Z " fill="#FCF9F6" transform="translate(73,144)"/>
<path d="M0 0 C0.66 0.33 1.32 0.66 2 1 C1.67639102 3.91248082 1.16758806 5.75560075 -0.5 8.1875 C-3.97393802 10.70610506 -7.70690451 11.79443742 -12 12 C-12.99 11.34 -13.98 10.68 -15 10 C-14.34 10 -13.68 10 -13 10 C-12.67 9.34 -12.34 8.68 -12 8 C-10.329375 7.7834375 -10.329375 7.7834375 -8.625 7.5625 C-4.94057661 6.99077913 -4.24485329 6.71745398 -2 4 C-1.34 4 -0.68 4 0 4 C0 2.68 0 1.36 0 0 Z " fill="#B6BDBF" transform="translate(181,94)"/>
<path d="M0 0 C7.00272851 0.11869031 7.00272851 0.11869031 9.6796875 2.484375 C11.0679594 4.31971751 12.18329769 5.84444144 13 8 C12.62109375 10.23046875 12.62109375 10.23046875 12 12 C12 11.34 12 10.68 12 10 C11.34 10 10.68 10 10 10 C9.731875 9.38125 9.46375 8.7625 9.1875 8.125 C8.04443152 5.7004767 8.04443152 5.7004767 5 4 C2.67612053 3.60612212 0.34206251 3.26513915 -2 3 C-1.34 2.67 -0.68 2.34 0 2 C0 1.34 0 0.68 0 0 Z " fill="#B1B8B8" transform="translate(189,100)"/>
<path d="M0 0 C0.99 0.495 0.99 0.495 2 1 C1.01 1.495 1.01 1.495 0 2 C0 1.34 0 0.68 0 0 Z M0 2 C-0.66 3.32 -1.32 4.64 -2 6 C-2.66 6 -3.32 6 -4 6 C-4 6.66 -4 7.32 -4 8 C-4.5775 8.185625 -5.155 8.37125 -5.75 8.5625 C-9.10427843 10.70551122 -10.17907996 13.48822563 -12 17 C-12.66 17 -13.32 17 -14 17 C-12.125 11.25 -12.125 11.25 -11 9 C-10.34 9 -9.68 9 -9 9 C-8.67 8.01 -8.34 7.02 -8 6 C-2.62857143 2 -2.62857143 2 0 2 Z " fill="#FCFBFA" transform="translate(105,91)"/>
<path d="M0 0 C0 0.66 0 1.32 0 2 C-1.71484375 3.21875 -1.71484375 3.21875 -3.9375 4.5 C-7.05432026 6.18454879 -7.05432026 6.18454879 -9 9 C-9.66 9 -10.32 9 -11 9 C-11.4021875 10.2684375 -11.4021875 10.2684375 -11.8125 11.5625 C-13.0478595 15.13854067 -14.476988 18.53860908 -16 22 C-16.33 22 -16.66 22 -17 22 C-16.75040973 15.0114724 -14.84447641 11.04157503 -10 6 C-3.11914894 0 -3.11914894 0 0 0 Z " fill="#E8E6E4" transform="translate(105,91)"/>
<path d="M0 0 C0.66 0 1.32 0 2 0 C3.01911045 3.89114901 3.16782969 5.60596507 1.5625 9.375 C1.046875 10.24125 0.53125 11.1075 0 12 C-1.32 12 -2.64 12 -4 12 C-2.66666667 8 -1.33333333 4 0 0 Z " fill="#A1A5A5" transform="translate(205,108)"/>
<path d="M0 0 C3.3 0.66 6.6 1.32 10 2 C10 2.99 10 3.98 10 5 C7.03 4.505 7.03 4.505 4 4 C3.67 4.66 3.34 5.32 3 6 C2.01 6.33 1.02 6.66 0 7 C-0.93423645 3.98968256 -1.04449911 3.13349732 0 0 Z " fill="#948E71" transform="translate(39,141)"/>
<path d="M0 0 C0 0.99 0 1.98 0 3 C0.66 3.33 1.32 3.66 2 4 C0.68 4.33 -0.64 4.66 -2 5 C-2 5.66 -2 6.32 -2 7 C-7.75 5.125 -7.75 5.125 -10 4 C-10 3.34 -10 2.68 -10 2 C-3.375 0 -3.375 0 0 0 Z " fill="#EFECEA" transform="translate(80,124)"/>
<path d="M0 0 C2.31 0.33 4.62 0.66 7 1 C7 2.65 7 4.3 7 6 C5.35 6.66 3.7 7.32 2 8 C0.68 6.35 -0.64 4.7 -2 3 C-1.34 2.01 -0.68 1.02 0 0 Z " fill="#9BA4A3" transform="translate(164,95)"/>
<path d="M0 0 C0.66 0.33 1.32 0.66 2 1 C1.10670798 7.11971698 0.15556126 11.07195333 -5 15 C-7.3125 15.8125 -7.3125 15.8125 -9 16 C-9 15.34 -9 14.68 -9 14 C-8.21625 13.54625 -7.4325 13.0925 -6.625 12.625 C-3.84352803 10.9031364 -3.04326126 10.03494184 -2 7 C-2 6.01 -2 5.02 -2 4 C-1 1.8125 -1 1.8125 0 0 Z " fill="#73B6D7" transform="translate(117,189)"/>
<path d="M0 0 C2.09812574 0.43409498 4.12776719 1.03650491 6.1875 1.625 C6.785625 1.74875 7.38375 1.8725 8 2 C8.33 1.67 8.66 1.34 9 1 C11.33944736 1.28730055 13.6739143 1.61936779 16 2 C14.2841869 4.12085751 13.38482316 4.92868886 10.66015625 5.43359375 C3.58305975 5.444236 3.58305975 5.444236 0.375 3 C-0.07875 2.34 -0.5325 1.68 -1 1 C-0.67 0.67 -0.34 0.34 0 0 Z " fill="#6D6651" transform="translate(62,172)"/>
<path d="M0 0 C0.66 0.33 1.32 0.66 2 1 C0.68 2.65 -0.64 4.3 -2 6 C0.97 6 3.94 6 7 6 C4 9 4 9 1.84375 9.29296875 C1.0703125 9.25816406 0.296875 9.22335938 -0.5 9.1875 C-1.2734375 9.16042969 -2.046875 9.13335937 -2.84375 9.10546875 C-3.5553125 9.07066406 -4.266875 9.03585938 -5 9 C-5.99 9 -6.98 9 -8 9 C-5.89851796 5.01824456 -3.63094642 2.64960955 0 0 Z " fill="#B2AE8B" transform="translate(147,153)"/>
<path d="M0 0 C3.19789729 0.37184852 5.05597349 1.50802468 7.6875 3.3125 C5.6875 5.3125 5.6875 5.3125 2.25 5.625 C-1.3125 5.3125 -1.3125 5.3125 -3.25 3.8125 C-3.7759375 3.07 -3.7759375 3.07 -4.3125 2.3125 C-2.3125 0.3125 -2.3125 0.3125 0 0 Z " fill="#524A3C" transform="translate(79.3125,177.6875)"/>
<path d="M0 0 C0.66 0 1.32 0 2 0 C4 3 4 3 3.625 5.1875 C3.41875 5.785625 3.2125 6.38375 3 7 C2.34 6.01 1.68 5.02 1 4 C0.34 6.64 -0.32 9.28 -1 12 C-1.99 11.67 -2.98 11.34 -4 11 C-3.49357808 6.64477147 -2.61588503 3.55760365 0 0 Z " fill="#FCFBFA" transform="translate(102,103)"/>
<path d="M0 0 C0.79921875 0.28746094 1.5984375 0.57492188 2.421875 0.87109375 C3.32679687 1.21333984 3.32679687 1.21333984 4.25 1.5625 C4.25 2.2225 4.25 2.8825 4.25 3.5625 C-0.04 3.5625 -4.33 3.5625 -8.75 3.5625 C-8.75 2.2425 -8.75 0.9225 -8.75 -0.4375 C-5.32056481 -1.62521723 -3.37215325 -1.23976223 0 0 Z " fill="#66624D" transform="translate(120.75,174.4375)"/>
<path d="M0 0 C0.66 0.33 1.32 0.66 2 1 C0.576875 2.36125 0.576875 2.36125 -0.875 3.75 C-5.03637852 8.51006741 -5.417992 13.88891597 -6 20 C-6.66 20 -7.32 20 -8 20 C-8.6538198 12.93874611 -6.91174833 7.92822704 -3 2 C-2.01 1.34 -1.02 0.68 0 0 Z " fill="#EDEDEA" transform="translate(99,99)"/>
<path d="M0 0 C2.97 0.495 2.97 0.495 6 1 C6.33 1.99 6.66 2.98 7 4 C7.99 4 8.98 4 10 4 C10.33 4.99 10.66 5.98 11 7 C10.01 7.495 10.01 7.495 9 8 C8.67 7.34 8.34 6.68 8 6 C4.71585695 5.04932701 3.30306592 4.89897803 0 6 C0 4.02 0 2.04 0 0 Z " fill="#66604D" transform="translate(35,132)"/>
<path d="M0 0 C0 2.31 0 4.62 0 7 C-0.66 6.67 -1.32 6.34 -2 6 C-2 5.34 -2 4.68 -2 4 C-4.41619823 3.74969023 -4.41619823 3.74969023 -7 4 C-7.99 5.485 -7.99 5.485 -9 7 C-9.66 6.67 -10.32 6.34 -11 6 C-8.60159776 0.46522561 -5.82500047 -0.25888891 0 0 Z " fill="#6D6752" transform="translate(166,135)"/>
<path d="M0 0 C0.66 0.33 1.32 0.66 2 1 C1.34 2.32 0.68 3.64 0 5 C-0.66 5 -1.32 5 -2 5 C-2 5.66 -2 6.32 -2 7 C-1.01 7.66 -0.02 8.32 1 9 C-3.75 12 -3.75 12 -6 12 C-6.375 9.9375 -6.375 9.9375 -6 7 C-4.20822891 4.46427718 -2.15761879 2.22825512 0 0 Z " fill="#53702E" transform="translate(6,116)"/>
<path d="M0 0 C1.5625 1.125 1.5625 1.125 3 3 C2.6875 6.1875 2.6875 6.1875 2 9 C3.65 8.01 5.3 7.02 7 6 C6.8125 7.875 6.8125 7.875 6 10 C3.5 11.125 3.5 11.125 1 12 C0.67 12.66 0.34 13.32 0 14 C-0.38218767 12.34385343 -0.71395102 10.67542976 -1 9 C-0.67 8.67 -0.34 8.34 0 8 C0.07148199 6.64756083 0.08399454 5.29165633 0.0625 3.9375 C0.041875 2.638125 0.02125 1.33875 0 0 Z " fill="#A6ACAD" transform="translate(194,107)"/>
<path d="M0 0 C3 0 6 0 9 0 C9.25 5.625 9.25 5.625 7 9 C5.68 8.67 4.36 8.34 3 8 C3.66 7.01 4.32 6.02 5 5 C5 4.01 5 3.02 5 2 C3.02 2.33 1.04 2.66 -1 3 C-0.67 2.01 -0.34 1.02 0 0 Z " fill="#B2B9B9" transform="translate(186,109)"/>
<path d="M0 0 C4.92991345 -0.28999491 8.09251769 -0.19703098 12 3 C12 3.99 12 4.98 12 6 C11.319375 5.71125 10.63875 5.4225 9.9375 5.125 C6.67106907 3.87402645 3.37153877 2.92552045 0 2 C0 1.34 0 0.68 0 0 Z " fill="#ABB0B1" transform="translate(191,96)"/>
<path d="M0 0 C2.625 -0.1875 2.625 -0.1875 5 0 C5.33 1.65 5.66 3.3 6 5 C3.36 5.33 0.72 5.66 -2 6 C-2 6.99 -2 7.98 -2 9 C-2.66 9 -3.32 9 -4 9 C-2.94124926 5.59687262 -1.99097846 2.98646769 0 0 Z " fill="#5B706B" transform="translate(99,173)"/>
<path d="M0 0 C0 3 0 3 -2 5.1875 C-2.66 5.785625 -3.32 6.38375 -4 7 C-2.35 7 -0.7 7 1 7 C1 7.66 1 8.32 1 9 C-3.455 9.495 -3.455 9.495 -8 10 C-8 8.68 -8 7.36 -8 6 C-6.25 4.296875 -6.25 4.296875 -4 2.75 C-3.2575 2.22921875 -2.515 1.7084375 -1.75 1.171875 C-1.1725 0.78515625 -0.595 0.3984375 0 0 Z " fill="#9A9573" transform="translate(141,158)"/>
<path d="M0 0 C-0.54723683 3.37462715 -1.0549 5.08235 -3 8 C-4.32 7.67 -5.64 7.34 -7 7 C-6.39816251 4.97954558 -5.72693904 2.97888961 -5 1 C-3 0 -3 0 0 0 Z " fill="#686651" transform="translate(43,90)"/>
<path d="M0 0 C0.99 0 1.98 0 3 0 C4.41634833 2.83269666 4.3463005 5.47466438 4.5625 8.625 C4.64628906 9.81351563 4.73007813 11.00203125 4.81640625 12.2265625 C4.87699219 13.14179688 4.93757813 14.05703125 5 15 C4.34 14.67 3.68 14.34 3 14 C3 11.03 3 8.06 3 5 C2.34 5 1.68 5 1 5 C1 6.65 1 8.3 1 10 C0.34 10 -0.32 10 -1 10 C-0.67 6.7 -0.34 3.4 0 0 Z " fill="#C95F33" transform="translate(102,0)"/>
<path d="M0 0 C2.375 1.0625 2.375 1.0625 5 3 C6.3125 6.6875 6.3125 6.6875 7 10 C6.01 10.99 5.02 11.98 4 13 C4 11.68 4 10.36 4 9 C3.01 9.495 3.01 9.495 2 10 C2.04125 9.0925 2.0825 8.185 2.125 7.25 C2.00468444 4.1217954 1.6085292 2.61385994 0 0 Z " fill="#EDE9E6" transform="translate(137,132)"/>
<path d="M0 0 C4.455 0.99 4.455 0.99 9 2 C9 2.99 9 3.98 9 5 C6.03 4.67 3.06 4.34 0 4 C0 2.66666667 0 1.33333333 0 0 Z " fill="#EFEDEA" transform="translate(126,124)"/>
<path d="M0 0 C-0.33 0.99 -0.66 1.98 -1 3 C-1.74765625 3.13277344 -2.4953125 3.26554687 -3.265625 3.40234375 C-4.74289063 3.66724609 -4.74289063 3.66724609 -6.25 3.9375 C-7.22453125 4.11152344 -8.1990625 4.28554687 -9.203125 4.46484375 C-11.49721795 4.90379729 -13.74291971 5.40348592 -16 6 C-15.34 5.34 -14.68 4.68 -14 4 C-14.33 3.34 -14.66 2.68 -15 2 C-14.29875 2.04125 -13.5975 2.0825 -12.875 2.125 C-8.30483715 1.92629727 -4.64220001 0 0 0 Z " fill="#64953D" transform="translate(29,106)"/>
<path d="M0 0 C0.33 0.66 0.66 1.32 1 2 C0 5 0 5 -2 6 C-3.70702735 6.06996014 -5.41668003 6.08440154 -7.125 6.0625 C-8.03507812 6.05347656 -8.94515625 6.04445312 -9.8828125 6.03515625 C-10.58148438 6.02355469 -11.28015625 6.01195312 -12 6 C-12.66 4.68 -13.32 3.36 -14 2 C-13.01 2.495 -13.01 2.495 -12 3 C-10.12620395 3.07033769 -8.24998898 3.0843022 -6.375 3.0625 C-5.37210938 3.05347656 -4.36921875 3.04445312 -3.3359375 3.03515625 C-2.56507812 3.02355469 -1.79421875 3.01195312 -1 3 C-0.67 2.01 -0.34 1.02 0 0 Z " fill="#2C90C5" transform="translate(109,196)"/>
<path d="M0 0 C2.375 0.8125 2.375 0.8125 4.375 2.8125 C4 4.9375 4 4.9375 3.375 6.8125 C3.375 5.8225 3.375 4.8325 3.375 3.8125 C2.2921875 4.121875 2.2921875 4.121875 1.1875 4.4375 C-2.07141585 4.87202211 -3.70804504 4.22930669 -6.625 2.8125 C-4.2650337 0.62734602 -3.28118881 -0.23437063 0 0 Z " fill="#4E5047" transform="translate(103.625,177.1875)"/>
<path d="M0 0 C0.66 0.33 1.32 0.66 2 1 C2.25 8.625 2.25 8.625 0 12 C0 10.68 0 9.36 0 8 C-1.65 8.33 -3.3 8.66 -5 9 C-4.67 8.01 -4.34 7.02 -4 6 C-3.01 6 -2.02 6 -1 6 C-0.67 4.02 -0.34 2.04 0 0 Z " fill="#5D5649" transform="translate(166,127)"/>
<path d="M0 0 C3.43301724 0.77907956 6.75410038 1.62425447 10 3 C11.625 5.6875 11.625 5.6875 12 8 C11.01 8 10.02 8 9 8 C8 7 7 6 6 5 C3.89667109 4.28552357 3.89667109 4.28552357 2 4 C1.67 4.66 1.34 5.32 1 6 C0.67 4.02 0.34 2.04 0 0 Z " fill="#4D4639" transform="translate(33,128)"/>
<path d="M0 0 C3.01326538 0.32284986 4.03461538 1.03365384 6.25 3.1875 C8.27011863 6.43411922 8.34907695 8.24742282 8 12 C7.34 12 6.68 12 6 12 C4 8 2 4 0 0 Z " fill="#E4DED9" transform="translate(107,98)"/>
<path d="M0 0 C2.50298434 2.93828597 3.46930939 5.17902761 4 9 C3.34 9 2.68 9 2 9 C1.34 9.66 0.68 10.32 0 11 C-2.08559201 7.56490728 -2.08559201 7.56490728 -1.6875 4.9375 C-1.460625 4.298125 -1.23375 3.65875 -1 3 C-0.67 2.01 -0.34 1.02 0 0 Z " fill="#7E7B70" transform="translate(162,87)"/>
<path d="M0 0 C0.99 0 1.98 0 3 0 C4.1875 3.25 4.1875 3.25 5 7 C3.625 9.4375 3.625 9.4375 2 11 C0.57741188 7.17679443 -0.24042276 4.08718695 0 0 Z " fill="#2585B4" transform="translate(101,162)"/>
<path d="M0 0 C0 0.66 0 1.32 0 2 C-0.598125 1.814375 -1.19625 1.62875 -1.8125 1.4375 C-4.16408762 0.77906313 -4.16408762 0.77906313 -7 2 C-9.6875 1.5625 -9.6875 1.5625 -12 1 C-8.23392121 -4.64911818 -5.41048199 -2.55211414 0 0 Z " fill="#8D876D" transform="translate(77,168)"/>
<path d="M0 0 C-0.33 1.32 -0.66 2.64 -1 4 C-1.5775 3.814375 -2.155 3.62875 -2.75 3.4375 C-6.7126047 2.66699353 -9.53555803 4.14404895 -13 6 C-8.72463768 0.25879917 -8.72463768 0.25879917 -5.375 -0.9375 C-3 -1 -3 -1 0 0 Z " fill="#A8A581" transform="translate(160,147)"/>
<path d="M0 0 C-0.98093954 2.45234885 -1.68703828 3.7809268 -3.875 5.3125 C-6.35009306 6.1132654 -7.58287634 5.86325845 -10 5 C-7.31084421 0.96626631 -4.80874906 0 0 0 Z " fill="#E5E0DE" transform="translate(100,140)"/>
<path d="M0 0 C2.37948772 0.17625835 3.70225849 0.69719773 5.37890625 2.40234375 C6.62115486 3.90649092 7.81376056 5.45129851 9 7 C8.01 8.485 8.01 8.485 7 10 C5.83043409 8.52312468 4.66441854 7.04343707 3.5 5.5625 C2.8503125 4.73878906 2.200625 3.91507812 1.53125 3.06640625 C0 1 0 1 0 0 Z " fill="#70685A" transform="translate(146,68)"/>
<path d="M0 0 C-1.44459644 3.73187415 -1.44459644 3.73187415 -3.8125 4.875 C-6.62762177 5.0358641 -8.476506 4.19164995 -11 3 C-7.4144509 0.60963393 -4.2914923 0 0 0 Z " fill="#999575" transform="translate(153,162)"/>
<path d="M0 0 C2.88437779 1.29299694 4.87219421 2.65941363 7 5 C5 8 5 8 1.875 8.6875 C0.92625 8.790625 -0.0225 8.89375 -1 9 C-0.67 7.35 -0.34 5.7 0 4 C0.99 4 1.98 4 3 4 C2.01 2.68 1.02 1.36 0 0 Z " fill="#AEAA88" transform="translate(56,155)"/>
<path d="M0 0 C7.75 0.75 7.75 0.75 10 3 C8.9275 3.144375 7.855 3.28875 6.75 3.4375 C4.08337051 3.83749442 1.58600271 4.27591924 -1 5 C-1 2 -1 2 0 0 Z " fill="#A5A9A6" transform="translate(152,96)"/>
<path d="M0 0 C0.33 0 0.66 0 1 0 C1 2.97 1 5.94 1 9 C1.99 9.33 2.98 9.66 4 10 C6 13 6 13 6 16 C3.63680651 15.0547226 2.26997892 14.41996722 0.875 12.25 C-0.15657407 9.59738096 -0.19964343 7.58645051 -0.125 4.75 C-0.09792969 3.41195312 -0.09792969 3.41195312 -0.0703125 2.046875 C-0.04710938 1.37140625 -0.02390625 0.6959375 0 0 Z " fill="#DED9D7" transform="translate(93,76)"/>
<path d="M0 0 C0.66 0 1.32 0 2 0 C3.31223496 3.93670488 2.24296256 6.12488144 1 10 C-1.875 10.125 -1.875 10.125 -5 10 C-5.66 9.34 -6.32 8.68 -7 8 C-7 7.01 -7 6.02 -7 5 C-5.68 5.33 -4.36 5.66 -3 6 C-3.33 6.66 -3.66 7.32 -4 8 C-2.68 8 -1.36 8 0 8 C0 5.36 0 2.72 0 0 Z " fill="#A3A7A7" transform="translate(190,120)"/>
<path d="M0 0 C-1.55500981 3.81684226 -4.03595495 6.19195732 -7 9 C-7.8125 7.3125 -7.8125 7.3125 -8 5 C-3.90909091 0 -3.90909091 0 0 0 Z " fill="#615A4F" transform="translate(59,65)"/>
<path d="M0 0 C0.66 0.66 1.32 1.32 2 2 C1.66302652 8.17784711 1.66302652 8.17784711 -0.5625 10.9375 C-1.036875 11.288125 -1.51125 11.63875 -2 12 C-2.99 11.67 -3.98 11.34 -5 11 C-3.13091744 8.19637616 -1.12038635 5.61514317 1 3 C0.34 3 -0.32 3 -1 3 C-0.67 2.01 -0.34 1.02 0 0 Z " fill="#F1EFEE" transform="translate(103,106)"/>
<path d="M0 0 C0.34833144 4.87664009 -0.58314288 7.77050005 -3 12 C-3.33 12 -3.66 12 -4 12 C-4.368 4.64 -4.368 4.64 -2.5625 1.5 C-1 0 -1 0 0 0 Z " fill="#71C3E8" transform="translate(98,170)"/>
<path d="M0 0 C2.0625 0.4375 2.0625 0.4375 4 1 C-1.74887005 4.77782889 -6.18637227 5.13360054 -13 5 C-10.34506963 3.45129062 -7.77884215 2.64580073 -4.8125 1.9375 C-1.23380855 1.40640944 -1.23380855 1.40640944 0 0 Z " fill="#6B9B3D" transform="translate(37,119)"/>
<path d="M0 0 C1.98 0 3.96 0 6 0 C6 0.66 6 1.32 6 2 C6.66 2 7.32 2 8 2 C8 2.66 8 3.32 8 4 C7.34 4 6.68 4 6 4 C5.67 4.66 5.34 5.32 5 6 C2.5 4.6875 2.5 4.6875 0 3 C0 2.01 0 1.02 0 0 Z " fill="#A3A5A4" transform="translate(148,102)"/>
<path d="M0 0 C1.32 0.33 2.64 0.66 4 1 C4 1.66 4 2.32 4 3 C5.32 2.67 6.64 2.34 8 2 C8.33 2.99 8.66 3.98 9 5 C7.35 5.66 5.7 6.32 4 7 C2.02 3.535 2.02 3.535 0 0 Z " fill="#414E4B" transform="translate(112,178)"/>
<path d="M0 0 C6.70212766 1.93617021 6.70212766 1.93617021 9 5 C9 5.66 9 6.32 9 7 C5.56072421 5.7580393 2.74792181 4.44259716 0 2 C0 1.34 0 0.68 0 0 Z " fill="#A9AAA9" transform="translate(149,108)"/>
<path d="M0 0 C0.66 0 1.32 0 2 0 C0.68775452 3.93673644 -0.91910327 6.22719294 -4 9 C-4.625 7.1875 -4.625 7.1875 -5 5 C-4.34 4.01 -3.68 3.02 -3 2 C-2.01 2 -1.02 2 0 2 C0 1.34 0 0.68 0 0 Z " fill="#54605C" transform="translate(90,175)"/>
<path d="M0 0 C0.33 0.66 0.66 1.32 1 2 C-2.65456815 2.75241109 -6.31733897 3.40049704 -10 4 C-10 3.01 -10 2.02 -10 1 C-6.61981469 -0.04005702 -3.5219721 -0.08004482 0 0 Z " fill="#69624C" transform="translate(137,174)"/>
<path d="M0 0 C0.66 0.33 1.32 0.66 2 1 C2 1.99 2 2.98 2 4 C1.34 4 0.68 4 0 4 C0 4.99 0 5.98 0 7 C-0.66 7 -1.32 7 -2 7 C-2.33 7.99 -2.66 8.98 -3 10 C-3.33 9.34 -3.66 8.68 -4 8 C-1.48571429 1.48571429 -1.48571429 1.48571429 0 0 Z " fill="#669AAD" transform="translate(101,158)"/>
<path d="M0 0 C5.95703125 -0.390625 5.95703125 -0.390625 8 0 C8.99 1.32 9.98 2.64 11 4 C7.7 3.67 4.4 3.34 1 3 C0.67 2.01 0.34 1.02 0 0 Z " fill="#CECC9F" transform="translate(45,153)"/>
<path d="M0 0 C0.6875 2.3125 0.6875 2.3125 1 5 C-0.4375 6.8125 -0.4375 6.8125 -2 8 C-1.67 6.02 -1.34 4.04 -1 2 C-3.31 2.33 -5.62 2.66 -8 3 C-5.53387212 -0.1151089 -3.89156016 -0.31553191 0 0 Z " fill="#918C6F" transform="translate(163,142)"/>
<path d="M0 0 C1.32 0.66 2.64 1.32 4 2 C3.67 3.32 3.34 4.64 3 6 C1.35 5.67 -0.3 5.34 -2 5 C-1.34 3.35 -0.68 1.7 0 0 Z " fill="#A39E7E" transform="translate(62,160)"/>
<path d="M0 0 C0.33 0.66 0.66 1.32 1 2 C1.66 2.33 2.32 2.66 3 3 C1.35 4.98 -0.3 6.96 -2 9 C-2.6875 7.3125 -2.6875 7.3125 -3 5 C-1.5625 2.25 -1.5625 2.25 0 0 Z " fill="#5F5851" transform="translate(163,124)"/>
<path d="M0 0 C-1.65 1.65 -3.3 3.3 -5 5 C-5.99 4.67 -6.98 4.34 -8 4 C-7 1 -7 1 -5.125 -0.25 C-3 -1 -3 -1 0 0 Z " fill="#A4A5A0" transform="translate(179,91)"/>
<path d="M0 0 C0.99 0.33 1.98 0.66 3 1 C3.94921875 3.06640625 3.94921875 3.06640625 4.6875 5.5625 C4.93886719 6.38878906 5.19023438 7.21507812 5.44921875 8.06640625 C5.63097656 8.70449219 5.81273438 9.34257812 6 10 C4.078125 9.2578125 4.078125 9.2578125 2 8 C0.88285416 5.37576119 0.54630188 2.82255969 0 0 Z " fill="#357D99" transform="translate(108,172)"/>
<path d="M0 0 C1.08667969 0.29197266 1.08667969 0.29197266 2.1953125 0.58984375 C2.74960938 0.74582031 3.30390625 0.90179688 3.875 1.0625 C1.875 3.0625 1.875 3.0625 -0.0703125 3.2578125 C-2.08854167 3.19270833 -4.10677083 3.12760417 -6.125 3.0625 C-6.125 2.0725 -6.125 1.0825 -6.125 0.0625 C-3.57797384 -1.21101308 -2.6967055 -0.73941925 0 0 Z " fill="#FDF9F8" transform="translate(130.125,130.9375)"/>
<path d="M0 0 C0 0.99 0 1.98 0 3 C-1.98 3.33 -3.96 3.66 -6 4 C-6 3.01 -6 2.02 -6 1 C-4 0 -4 0 0 0 Z " fill="#404C21" transform="translate(40,122)"/>
<path d="M0 0 C0.66 0.33 1.32 0.66 2 1 C1.67 2.32 1.34 3.64 1 5 C-2 5 -2 5 -5 3 C-2.625 1.4375 -2.625 1.4375 0 0 Z " fill="#67973A" transform="translate(12,112)"/>
<path d="M0 0 C0.66 0 1.32 0 2 0 C2.33 1.98 2.66 3.96 3 6 C1.68 6.33 0.36 6.66 -1 7 C-0.67 4.69 -0.34 2.38 0 0 Z " fill="#A7AEAE" transform="translate(205,108)"/>
<path d="M0 0 C0.33 0.66 0.66 1.32 1 2 C-0.125 3.9375 -0.125 3.9375 -2 6 C-5.1875 6.75 -5.1875 6.75 -8 7 C-5.42215154 4.35247996 -3.08351902 2.05567935 0 0 Z " fill="#54C9FD" transform="translate(115,195)"/>
<path d="M0 0 C1.485 0.99 1.485 0.99 3 2 C3.29296875 5.0390625 3.29296875 5.0390625 3.1875 8.625 C3.16042969 9.81351563 3.13335937 11.00203125 3.10546875 12.2265625 C3.07066406 13.14179688 3.03585938 14.05703125 3 15 C2.67 15 2.34 15 2 15 C1.93941406 14.33613281 1.87882812 13.67226562 1.81640625 12.98828125 C1.20136493 6.45091919 1.20136493 6.45091919 0 0 Z " fill="#1F82AA" transform="translate(108,181)"/>
<path d="M0 0 C0.8125 1.625 0.8125 1.625 1 4 C-0.46818136 6.24609835 -2.15852858 8.02378677 -4 10 C-4.99 9.67 -5.98 9.34 -7 9 C-6.21625 8.2575 -5.4325 7.515 -4.625 6.75 C-2.43495469 4.45566682 -1.17268614 2.87841142 0 0 Z " fill="#A59E82" transform="translate(158,152)"/>
<path d="M0 0 C0.66 0 1.32 0 2 0 C2.625 2.3125 2.625 2.3125 3 5 C2.01 6.485 2.01 6.485 1 8 C0.01 7.67 -0.98 7.34 -2 7 C-1.67 6.01 -1.34 5.02 -1 4 C-0.34 4 0.32 4 1 4 C0.67 2.68 0.34 1.36 0 0 Z " fill="#989998" transform="translate(197,124)"/>
<path d="M0 0 C0.66 0.33 1.32 0.66 2 1 C1.67 2.98 1.34 4.96 1 7 C-0.32 7 -1.64 7 -3 7 C-1.125 2.25 -1.125 2.25 0 0 Z " fill="#54B6E0" transform="translate(117,189)"/>
<path d="M0 0 C1.98 0 3.96 0 6 0 C6 0.66 6 1.32 6 2 C4.68 2 3.36 2 2 2 C2 2.66 2 3.32 2 4 C1.01 4.33 0.02 4.66 -1 5 C-0.67 3.35 -0.34 1.7 0 0 Z " fill="#405050" transform="translate(94,182)"/>
<path d="M0 0 C2.64 0 5.28 0 8 0 C8.33 0.66 8.66 1.32 9 2 C4.545 2.495 4.545 2.495 0 3 C0 2.01 0 1.02 0 0 Z " fill="#BEBB8F" transform="translate(145,157)"/>
<path d="M0 0 C2.31 0.33 4.62 0.66 7 1 C6.67 1.99 6.34 2.98 6 4 C3.69 3.67 1.38 3.34 -1 3 C-0.67 2.01 -0.34 1.02 0 0 Z " fill="#8E928F" transform="translate(164,95)"/>
<path d="M0 0 C1.32 0 2.64 0 4 0 C5.04449911 3.13349732 4.93423645 3.98968256 4 7 C3.34 6.67 2.68 6.34 2 6 C2 5.34 2 4.68 2 4 C1.01 3.34 0.02 2.68 -1 2 C-0.67 1.34 -0.34 0.68 0 0 Z " fill="#AEB4B3" transform="translate(177,91)"/>
<path d="M0 0 C1.24546405 2.49092811 0.7767578 3.41080733 0 6 C-0.99 6 -1.98 6 -3 6 C-3.33 6.99 -3.66 7.98 -4 9 C-4.33 8.34 -4.66 7.68 -5 7 C-3.88820837 3.66462511 -2.52588702 2.36292656 0 0 Z " fill="#6FB0CD" transform="translate(90,179)"/>
<path d="M0 0 C0.99 0.99 1.98 1.98 3 3 C-1.455 3.495 -1.455 3.495 -6 4 C-6 3.01 -6 2.02 -6 1 C-3.1875 0.3125 -3.1875 0.3125 0 0 Z " fill="#737363" transform="translate(117,171)"/>
<path d="M0 0 C2.64 0.33 5.28 0.66 8 1 C6 3 6 3 2.375 3.125 C1.26125 3.08375 0.1475 3.0425 -1 3 C-0.67 2.01 -0.34 1.02 0 0 Z " fill="#C3C092" transform="translate(45,151)"/>
<path d="M0 0 C0.928125 0.0825 1.85625 0.165 2.8125 0.25 C2.8125 1.24 2.8125 2.23 2.8125 3.25 C-1.6425 3.745 -1.6425 3.745 -6.1875 4.25 C-4.36434338 1.00883268 -3.82500054 0.30000004 0 0 Z " fill="#BBB88D" transform="translate(155.1875,148.75)"/>
<path d="M0 0 C0.33 0.66 0.66 1.32 1 2 C0.030625 2.12375 -0.93875 2.2475 -1.9375 2.375 C-2.948125 2.58125 -3.95875 2.7875 -5 3 C-5.33 3.66 -5.66 4.32 -6 5 C-6 4.34 -6 3.68 -6 3 C-7.32 2.34 -8.64 1.68 -10 1 C-7.98177083 1.03255208 -5.96354167 1.06510417 -3.9453125 1.09765625 C-1.91814596 1.12649242 -1.91814596 1.12649242 0 0 Z " fill="#E06620" transform="translate(99,46)"/>
<path d="M0 0 C0.86625 0.2784375 0.86625 0.2784375 1.75 0.5625 C4.20692525 1.04023546 5.64397534 0.75729364 8 0 C7 2 7 2 5 3 C3.00039988 3.039992 0.99952758 3.04346799 -1 3 C-0.67 2.01 -0.34 1.02 0 0 Z " fill="#68624B" transform="translate(82,174)"/>
<path d="M0 0 C0.33 0.66 0.66 1.32 1 2 C2.32 1.67 3.64 1.34 5 1 C5.99 2.32 6.98 3.64 8 5 C2.25 4.125 2.25 4.125 0 3 C0 2.01 0 1.02 0 0 Z " fill="#C0BD94" transform="translate(52,155)"/>
<path d="M0 0 C0.99 0 1.98 0 3 0 C2.67 2.31 2.34 4.62 2 7 C1.34 7 0.68 7 0 7 C-0.93423645 3.98968256 -1.04449911 3.13349732 0 0 Z " fill="#8D886A" transform="translate(39,141)"/>
<path d="M0 0 C0 0.66 0 1.32 0 2 C-0.78375 2.144375 -1.5675 2.28875 -2.375 2.4375 C-4.96421018 2.87798925 -4.96421018 2.87798925 -7 4 C-7 2.68 -7 1.36 -7 0 C-4.3333581 -1.33332095 -2.83319697 -0.67102033 0 0 Z " fill="#716B54" transform="translate(43,137)"/>
<path d="M0 0 C2.9375 0.375 2.9375 0.375 6 1 C6.33 1.66 6.66 2.32 7 3 C5.824375 2.9690625 5.824375 2.9690625 4.625 2.9375 C2.01885039 2.81315937 2.01885039 2.81315937 0 4 C0 2.68 0 1.36 0 0 Z " fill="#5B5443" transform="translate(35,132)"/>
</svg>
